<?xml version="1.0" encoding="UTF-8"?>
<svg id="_圖層_1" data-name="圖層 1" xmlns="http://www.w3.org/2000/svg" viewBox="0 0 1200 1200">
  <defs>
    <style>
      .cls-1 {
        fill: #ec7081;
      }

      .cls-2 {
        fill: #adb6bc;
      }

      .cls-3 {
        fill: #dae2e8;
      }

      .cls-4 {
        fill: #1d80cb;
      }

      .cls-5 {
        fill: #98a1a8;
      }

      .cls-6 {
        stroke: #626c72;
        stroke-width: 4px;
      }

      .cls-6, .cls-7 {
        fill: none;
        stroke-miterlimit: 10;
      }

      .cls-7 {
        stroke: #c9c9c9;
      }
    </style>
  </defs>
  <rect class="cls-3" x="-1259" y="-13" width="7857.17" height="1247"/>
  <g>
    <path class="cls-5" d="M48.61,1140.28c-1.33,1.47-3.04,2.94-4.88,3.61l-.85-1.17c1.77-.55,3.36-1.68,4.78-3.31l.94,.87Zm-5.68,13.77c2.85-.14,5.52-.71,7.89-1.95l.87,.99c-2.44,1.36-5.11,2.09-8.03,2.32l-.74-1.36Zm4.32-15.59c-.46-.39-.92-.92-1.47-1.24-.69-.41-1.4-.85-2.23-1.01l.87-1.08c1.36,.44,2.58,1.22,3.7,2.23l-.87,1.1Zm12.62,13.38l-13.5-.02v-9.01h13.48l.02,9.04Zm-1.43-5.27l-10.67-.02v1.47h10.67v-1.45Zm-10.65,3.98l10.65,.02v-1.36l-10.67-.02,.02,1.36Zm10.65-6.42l-10.65-.02v1.29l10.65,.02v-1.29Zm-1.66-6.67c-.21,.46-.39,.85-.58,1.24,.51,.62,.88,.87,1.52,1.26,.85,.55,1.82,.99,2.83,1.27,.83,.21,1.7,.3,2.58,.37l-.69,1.33c-1.22-.09-2.37-.44-3.47-.78-1.24-.53-2.46-1.15-3.45-2.23l-.09,.02c-1.52,1.63-3.61,2.32-5.77,2.62l-.71-1.29c1.82-.18,3.56-.64,4.99-1.68,.67-.62,1.2-1.29,1.43-2.14h-2.85c-.6,.83-1.31,1.66-2.19,2.23l-1.17-.85c1.63-.87,2.9-2.83,3.59-4.46l1.1,.51c-.09,.37-.3,.85-.48,1.22h8.76c-.28,1.36-.87,2.51-1.45,3.56l-1.2-.6c.51-.64,.64-1.01,.83-1.61h-3.52Zm5.52,17.91c-2.39-1.26-4.88-1.96-7.7-2.16l.83-1.2c2.78,.18,5.31,1.04,7.68,2.21l-.8,1.15Z"/>
    <path class="cls-5" d="M74.99,1148.47c-.8-1.15-2-2.18-3.24-2.62v9.57h-1.43l.02-8.37c-.85,1.82-2.48,3.47-4.09,4.81l-1.15-.94,1.59-1.38c1.56-1.72,3.08-3.59,3.66-5.82h-4.25v-1.36l4.25-.02-.02-7.86h1.43l.02,7.89h3.96v1.36l-3.98-.02v1.63l.83-.55c1.38,.58,2.55,1.66,3.54,2.88l-1.13,.83Zm-6.97-7.24c-.16-1.66-.69-3.31-1.79-4.6l1.22-.62c.97,1.36,1.66,2.85,1.89,4.55l-1.31,.67Zm4.25-.53c1.1-1.4,1.93-2.97,2.14-4.74l1.24,.51c-.18,1.47-1.06,3.96-2.14,4.83l-1.24-.6Zm10.09,7.84l-7.93,2.16-.41-1.36,8.35-2.28v-12.72h1.43v12.33l2.16-.62,.37,1.31-2.53,.74v7.17h-1.43v-6.74Zm-2.85-2.35c-.71-1.63-2-3.2-3.59-4.12l1.15-.8c1.59,.9,2.74,2.46,3.56,4l-1.13,.92Zm.48-5.77c-.67-1.47-1.95-2.9-3.43-3.63l1.1-.87c1.47,.78,2.67,2.21,3.5,3.63l-1.17,.87Z"/>
    <path class="cls-5" d="M97.92,1155.32v-8.67c-2.16,3.15-5.17,5.52-8.55,7.06-.3-.41-.67-.83-.94-1.26,2.48-1.01,4.6-2.55,6.62-4.46,1.06-1.2,2.09-2.42,2.9-3.77v-5.52h-8.67l-.02-1.4,8.67,.02-.02-2.97h1.59l-.02,2.94h8.6l.02,1.4h-8.62v5.54c1.72,2.71,4.39,5.31,7.04,6.94,.8,.51,1.66,.87,2.53,1.24-.32,.37-.71,.78-1.06,1.15-3.38-1.4-6.37-4.02-8.44-7.15l-.07,8.88-1.54,.02Zm-3.82-15.54c.02,.83-.14,1.61-.25,2.39,1.22,.58,2.3,1.77,3.08,2.88-.28,.37-.69,.71-1.08,1.01-.55-.99-1.36-1.91-2.3-2.6-.58,1.43-1.45,2.78-2.64,3.91l-.16-.05c-.37-.28-.74-.58-1.1-.85,1.63-1.36,2.69-3.17,2.97-5.24,.07-.6,.16-1.22,.18-1.79l1.31,.34Zm10.67-.16c.02,.92-.16,1.82-.3,2.71,1.4,.8,2.6,2.16,3.4,3.54-.34,.32-.76,.67-1.17,.87-.6-1.13-1.45-2.23-2.51-3.08-.02-.05-.07-.02-.09-.02-.39,1.08-.97,2-1.77,2.9-.44-.28-.85-.46-1.29-.74,1.72-1.77,2.28-4.05,2.41-6.48l1.31,.3Z"/>
    <path class="cls-5" d="M110.85,1153.92c.18-.34,.51-.67,.74-1.01,1.45-2.21,2.28-4.76,2.62-7.43l1.33,.58c-.09,1.33-.51,2.55-.87,3.77-.53,1.77-1.4,3.33-2.51,4.88l-1.31-.78Zm3.13-10.16c-.64-1.15-1.82-2.35-3.06-2.9l.97-.92c1.24,.58,2.32,1.7,3.13,2.88l-1.04,.94Zm1.06-4.71c-.55-1.24-1.82-2.28-2.99-2.87l1.01-.87c.48,.16,.85,.51,1.27,.78,.71,.58,1.31,1.36,1.79,2.07l-1.08,.9Zm14.74-.09v7.98h-4.02v6.58c0,1.06-.44,1.91-1.45,1.91h-2.14l-.51-1.4,1.89,.09c.3,.02,.64,0,.71-.39v-6.78l-4.12,.02v-8h3.54c.32-.62,.58-1.31,.67-2.02h-5.93v10c0,3.15-.85,5.96-2.55,8.48l-1.43-.85c1.68-2.44,2.55-5.27,2.55-8.39l-.02-10.6h14.07l.02,1.36h-5.34c-.11,.64-.25,1.38-.55,2.02h4.6Zm-11.7,13.47c1.63-1.15,2.97-2.78,3.54-4.58l1.24,.62c-.64,1.68-2.18,3.68-3.59,4.9l-1.2-.94Zm10.26-12.12h-6.76v1.72l6.76-.02v-1.7Zm0,3.08h-6.76v2.18h6.76v-2.18Zm1.95,9.96c-.3-.94-.67-1.82-1.2-2.62-.44-.87-1.17-1.63-1.95-2.28l1.33-.64c1.5,1.33,2.35,3.06,3.08,4.74l-1.26,.8Z"/>
    <path class="cls-5" d="M143.12,1139.08h2.3v2.3h-2.3v-2.3Zm0,9.61h2.3v2.3h-2.3v-2.3Z"/>
    <path class="cls-5" d="M167.36,1150.17c-.67,2.51-2.51,3.86-5.22,3.86-3.56,0-5.7-2.3-5.7-6.14s2.16-6.32,5.59-6.32,5.43,2.42,5.43,6.21c0,.12-.02,.3-.02,.53h-8.9c.14,2.53,1.52,4.05,3.61,4.05,1.54,0,2.55-.76,3.15-2.44l2.07,.25Zm-2.05-3.52c-.07-.8-.12-1.04-.32-1.52-.46-1.13-1.66-1.91-2.97-1.91-1.86,0-3.24,1.4-3.38,3.43h6.67Z"/>
    <path class="cls-5" d="M169.96,1137.29h11.11v1.96h-8.92v5.1h7.73v1.93h-7.73v7.47h-2.18v-16.46Z"/>
    <path class="cls-5" d="M183.51,1137.29h2.02v2.32h-2.02v-2.32Zm0,4.55h2.02v11.91h-2.02v-11.91Z"/>
    <path class="cls-5" d="M188.38,1141.84h1.82v1.68c.87-1.29,2.18-1.96,3.82-1.96s2.94,.67,3.54,1.75c.46,.83,.53,1.22,.53,3.1v7.33h-2.02v-7.24c0-1.29-.09-1.7-.46-2.25-.39-.6-1.17-.94-2.05-.94-1.17,0-2.28,.6-2.74,1.49-.3,.6-.41,1.31-.41,2.44v6.51h-2.02v-11.91Z"/>
    <path class="cls-5" d="M209.13,1153.76c-.23-.46-.34-.85-.41-1.47-1.43,1.22-2.76,1.75-4.39,1.75-2.48,0-4.07-1.33-4.07-3.43,0-1.63,1.04-2.9,2.85-3.4,.51-.14,.8-.21,1.84-.32,1.59-.18,2.85-.44,3.61-.69v-.53c0-1.7-.85-2.44-2.87-2.44-1.91,0-2.67,.57-3.1,2.28l-1.98-.25c.18-.83,.28-1.1,.53-1.54,.83-1.43,2.46-2.14,4.83-2.14s3.86,.69,4.35,2c.25,.64,.3,.99,.3,2.48v2.71c0,2.64,.02,3.08,.16,3.77,.12,.53,.21,.74,.48,1.22h-2.12Zm-.58-5.98c-.69,.28-1.91,.55-3.31,.76-2.12,.3-2.83,.8-2.83,2.02,0,1.15,.92,1.89,2.42,1.89,1.13,0,2.18-.41,2.85-1.13,.67-.69,.87-1.38,.87-2.81v-.74Z"/>
    <path class="cls-5" d="M213.5,1141.84h1.82v1.68c.87-1.29,2.18-1.96,3.82-1.96s2.94,.67,3.54,1.75c.46,.83,.53,1.22,.53,3.1v7.33h-2.02v-7.24c0-1.29-.09-1.7-.46-2.25-.39-.6-1.17-.94-2.05-.94-1.17,0-2.28,.6-2.74,1.49-.3,.6-.41,1.31-.41,2.44v6.51h-2.02v-11.91Z"/>
    <path class="cls-5" d="M235.78,1149.64c-.44,2.74-2.3,4.39-4.97,4.39-3.38,0-5.43-2.35-5.43-6.21s2.05-6.25,5.45-6.25c1.7,0,3.2,.69,4,1.86,.41,.58,.55,.94,.74,1.91l-1.95,.3c-.37-1.59-1.31-2.41-2.71-2.41-2.21,0-3.45,1.63-3.45,4.55s1.2,4.58,3.33,4.58c1.15,0,2.16-.6,2.62-1.56,.21-.46,.28-.67,.37-1.4l2,.25Z"/>
    <path class="cls-5" d="M237.33,1137.29h2.02v2.32h-2.02v-2.32Zm0,4.55h2.02v11.91h-2.02v-11.91Z"/>
    <path class="cls-5" d="M250.39,1153.76c-.23-.46-.34-.85-.41-1.47-1.43,1.22-2.76,1.75-4.39,1.75-2.48,0-4.07-1.33-4.07-3.43,0-1.63,1.04-2.9,2.85-3.4,.51-.14,.8-.21,1.84-.32,1.59-.18,2.85-.44,3.61-.69v-.53c0-1.7-.85-2.44-2.87-2.44-1.91,0-2.67,.57-3.1,2.28l-1.98-.25c.18-.83,.28-1.1,.53-1.54,.83-1.43,2.46-2.14,4.83-2.14s3.86,.69,4.35,2c.25,.64,.3,.99,.3,2.48v2.71c0,2.64,.02,3.08,.16,3.77,.12,.53,.21,.74,.48,1.22h-2.12Zm-.58-5.98c-.69,.28-1.91,.55-3.31,.76-2.12,.3-2.83,.8-2.83,2.02,0,1.15,.92,1.89,2.42,1.89,1.13,0,2.18-.41,2.85-1.13,.67-.69,.87-1.38,.87-2.81v-.74Z"/>
    <path class="cls-5" d="M254.71,1137.29h2v16.46h-2v-16.46Z"/>
    <path class="cls-5" d="M279.96,1148.54c-.92,3.54-3.33,5.5-6.81,5.5s-5.56-1.31-6.76-3.98c-.64-1.43-.99-2.99-.99-4.65,0-5.1,3.06-8.39,7.77-8.39,3.29,0,5.61,1.7,6.51,4.81l-2.14,.51c-.78-2.37-2.14-3.45-4.41-3.45-3.45,0-5.47,2.42-5.47,6.51,0,4.3,1.93,6.78,5.31,6.78,2.55,0,4.23-1.47,4.81-4.18l2.18,.55Z"/>
    <path class="cls-5" d="M290.36,1153.76c-.23-.46-.35-.85-.41-1.47-1.43,1.22-2.76,1.75-4.39,1.75-2.48,0-4.07-1.33-4.07-3.43,0-1.63,1.04-2.9,2.85-3.4,.51-.14,.8-.21,1.84-.32,1.59-.18,2.85-.44,3.61-.69v-.53c0-1.7-.85-2.44-2.87-2.44-1.91,0-2.67,.57-3.11,2.28l-1.98-.25c.18-.83,.28-1.1,.53-1.54,.83-1.43,2.46-2.14,4.83-2.14s3.86,.69,4.35,2c.25,.64,.3,.99,.3,2.48v2.71c0,2.64,.02,3.08,.16,3.77,.12,.53,.21,.74,.48,1.22h-2.12Zm-.58-5.98c-.69,.28-1.91,.55-3.31,.76-2.12,.3-2.83,.8-2.83,2.02,0,1.15,.92,1.89,2.41,1.89,1.13,0,2.18-.41,2.85-1.13,.67-.69,.87-1.38,.87-2.81v-.74Z"/>
    <path class="cls-5" d="M294.66,1141.84h1.82v1.79c.85-1.56,1.49-2.07,2.58-2.07,.71,0,1.36,.21,2.07,.64l-.69,1.86c-.51-.3-.99-.44-1.49-.44-1.47,0-2.28,1.38-2.28,3.86v6.25h-2v-11.91Z"/>
    <path class="cls-5" d="M312.39,1150.17c-.67,2.51-2.51,3.86-5.22,3.86-3.56,0-5.7-2.3-5.7-6.14s2.16-6.32,5.59-6.32,5.43,2.42,5.43,6.21c0,.12-.02,.3-.02,.53h-8.9c.14,2.53,1.52,4.05,3.61,4.05,1.54,0,2.55-.76,3.15-2.44l2.07,.25Zm-2.05-3.52c-.07-.8-.12-1.04-.32-1.52-.46-1.13-1.66-1.91-2.97-1.91-1.86,0-3.24,1.4-3.38,3.43h6.67Z"/>
    <path class="cls-5" d="M324.95,1150.17c-.67,2.51-2.51,3.86-5.22,3.86-3.56,0-5.7-2.3-5.7-6.14s2.16-6.32,5.59-6.32,5.43,2.42,5.43,6.21c0,.12-.02,.3-.02,.53h-8.9c.14,2.53,1.52,4.05,3.61,4.05,1.54,0,2.55-.76,3.15-2.44l2.07,.25Zm-2.05-3.52c-.07-.8-.12-1.04-.32-1.52-.46-1.13-1.66-1.91-2.97-1.91-1.86,0-3.24,1.4-3.38,3.43h6.67Z"/>
    <path class="cls-5" d="M327.21,1141.84h1.82v1.79c.85-1.56,1.49-2.07,2.58-2.07,.71,0,1.36,.21,2.07,.64l-.69,1.86c-.51-.3-.99-.44-1.49-.44-1.47,0-2.28,1.38-2.28,3.86v6.25h-2v-11.91Z"/>
    <path class="cls-5" d="M335.86,1149.89c.23,1.63,1.27,2.48,3.08,2.48,1.66,0,2.74-.76,2.74-1.91,0-.83-.51-1.24-2-1.61l-1.33-.32c-1.29-.32-2.09-.62-2.74-.99-.88-.48-1.43-1.47-1.43-2.55,0-2.05,1.77-3.43,4.39-3.43,2.16,0,3.7,.69,4.35,1.98,.21,.41,.28,.64,.39,1.36l-1.98,.28c-.18-1.29-1.06-1.95-2.62-1.95s-2.58,.57-2.58,1.54c0,.9,.32,1.1,2.81,1.75,1.63,.44,2.32,.67,2.97,.94,1.22,.51,1.86,1.47,1.86,2.81,0,2.21-1.98,3.77-4.8,3.77-3.04,0-4.65-1.2-5.11-3.84l2-.3Z"/>
    <path class="cls-5" d="M351.24,1153.76c.11-.94,.23-1.33,.55-1.98,.62-1.24,1.68-2.44,3.33-3.79l.76-.62c3.04-2.48,4.19-4.05,4.19-5.61,0-1.66-1.31-2.85-3.11-2.85-1.98,0-3.2,1.24-3.22,3.31l-2.07-.23c.28-3.08,2.16-4.76,5.33-4.76s5.15,1.86,5.15,4.58c0,1.95-1.15,3.7-4.05,6.14l-1.66,1.4c-1.36,1.15-1.91,1.75-2.37,2.48h8.09v1.93h-10.95Z"/>
    <path class="cls-5" d="M369.5,1137.22c3.56,0,5.36,2.83,5.36,8.42s-1.79,8.39-5.36,8.39c-2.14,0-3.77-1.13-4.6-3.2-.53-1.33-.76-2.97-.76-5.24,0-5.54,1.79-8.37,5.36-8.37Zm-2.69,13.08c.46,1.29,1.5,2.07,2.69,2.07s2.23-.78,2.69-2.07c.39-1.06,.6-2.64,.6-4.67s-.18-3.56-.6-4.69c-.46-1.26-1.5-2.05-2.71-2.05-2.25,0-3.26,2.12-3.26,6.71,0,2.05,.21,3.61,.6,4.69Z"/>
    <path class="cls-5" d="M376.36,1153.76c.12-.94,.23-1.33,.55-1.98,.62-1.24,1.68-2.44,3.33-3.79l.76-.62c3.04-2.48,4.19-4.05,4.19-5.61,0-1.66-1.31-2.85-3.1-2.85-1.98,0-3.2,1.24-3.22,3.31l-2.07-.23c.28-3.08,2.16-4.76,5.33-4.76s5.15,1.86,5.15,4.58c0,1.95-1.15,3.7-4.05,6.14l-1.66,1.4c-1.36,1.15-1.91,1.75-2.37,2.48h8.09v1.93h-10.95Z"/>
    <path class="cls-5" d="M388.92,1153.76c.11-.94,.23-1.33,.55-1.98,.62-1.24,1.68-2.44,3.33-3.79l.76-.62c3.04-2.48,4.19-4.05,4.19-5.61,0-1.66-1.31-2.85-3.11-2.85-1.98,0-3.2,1.24-3.22,3.31l-2.07-.23c.28-3.08,2.16-4.76,5.33-4.76s5.15,1.86,5.15,4.58c0,1.95-1.15,3.7-4.05,6.14l-1.66,1.4c-1.36,1.15-1.91,1.75-2.37,2.48h8.09v1.93h-10.95Z"/>
    <path class="cls-5" d="M421.78,1147.23v1.4l-8.12-.02-.02,6.81-1.47,.02-.02-6.81-9.29-.02v-1.4l2.94,.02v-5.61h6.3v-3.4h-5.17c-.8,1.66-1.68,3.31-3.15,4.67l-1.24-.97c1.82-1.68,3.06-3.68,3.7-5.89l.51-1.7c.44,.18,.85,.37,1.26,.6-.09,.67-.32,1.26-.51,1.91h13.31v1.38l-7.22,.02,.02,3.38h6.02l.02,1.4-6,.02v4.19h8.12Zm-14.51-4.19v4.19h4.85l.02-4.21-4.88,.02Z"/>
    <path class="cls-5" d="M429.58,1150.4h-4.85v-1.31h4.85l-.02-2.3-3.72-.02v-1.31h2.78c-.23-.41-.37-.69-.67-1.08-.07-.05-.16-.23-.18-.3-.34-.44-.76-.8-1.13-1.22,.44-.21,.87-.46,1.33-.64,.85,.97,1.45,2.09,1.86,3.24h.85c.8-.99,1.2-2.07,1.63-3.2l1.27,.51c-.39,.97-.74,1.86-1.43,2.69h2.44l-.02,1.33h-3.54l.02,2.28,4.42,.02,.02,1.31-4.46,.02v5.01l-1.47-.02,.02-5.01Zm-.12-13.43l-.02-2.51,1.52,.02v2.48l3.63-.02-.02,1.36h-3.61v2.28h4.44v1.33h-10.42l-.02-1.31h4.55v-2.3h-3.84l-.02-1.33h3.82Zm14.74-1.45c-.07,1.7-.23,3.31-.83,4.81-.21,.53-.78,.97-1.36,1.08-.9,.09-1.77-.07-2.6-.18l-.46-1.43c.18-.02,.37,.09,.57,.12,.64,.09,1.31,.23,2,.16,.51-.05,.58-.58,.74-.92,.21-.76,.35-1.45,.41-2.25h-5.27l.02,5.98,6.94-.02c-.07,2.9-.85,5.45-2.12,7.89,.67,1.06,1.66,2.3,3.4,3.38l-1.01,1.1c-1.24-.76-2.32-1.98-3.2-3.13l-2.92,3.1-.92-1.08c1.17-.99,2.16-2.12,3.01-3.36-1.08-2-1.82-4.16-2.05-6.53h-1.13l.02,11.15h-1.59l.02-19.84,8.28-.02Zm-4.23,8.72c.21,1.75,.74,3.4,1.45,4.97,.78-1.54,1.36-3.15,1.43-4.97h-2.87Z"/>
    <path class="cls-5" d="M448.65,1141.36c1.98-1.54,2.92-3.7,3.47-5.96l1.4,.34c-.16,.71-.48,1.56-.71,2.25h4.51v-3.61h1.43v3.61h6.74v1.33h-6.74v3.56h8.97v1.33h-8.97v1.79h-1.43v-1.79h-9.38v-1.33h9.38v-3.56h-5.1c-.6,1.1-1.31,2.16-2.37,2.99l-1.2-.97Zm3.89,13.98h-1.43v-8.44h13.52v8.44h-1.43v-1.68h-10.67v1.68Zm0-3.01h10.67v-4.09h-10.67v4.09Z"/>
  </g>
  <g>
    <path class="cls-1" d="M139.37,74.11v-3.04c-3.07,.19-6.37,.29-9.92,.29l-.67-2.02c8.8-.03,16.09-.64,21.92-1.79l1.06,1.86c-2.91,.67-6.3,1.18-10.14,1.5v3.2h12.45v2.18h-11.17c4.61,1.95,8.58,4.06,11.9,6.37l-1.5,1.82c-3.1-2.4-7.01-4.64-11.68-6.72v5.09h8.32v13.98h-2.24v-1.73h-14.17v1.73h-2.24v-13.98h8.1v-6.4c-2.18,3.1-6.24,5.79-12.19,8.03l-1.25-2.05c5.5-1.82,9.25-3.87,11.26-6.14h-10.56v-2.18h12.74Zm8.32,13.95v-3.17h-14.17v3.17h14.17Zm0,4.99v-3.01h-14.17v3.01h14.17Z"/>
    <path class="cls-1" d="M164.91,80.64l-1.6,1.63c-1.28-1.47-3.07-3.01-5.31-4.64l1.6-1.57c2.11,1.54,3.9,3.04,5.31,4.58Zm-.06,5.63c-1.28,3.78-2.69,7.29-4.26,10.56l-2.3-.99c1.73-3.39,3.2-6.85,4.48-10.4l2.08,.83Zm1.06-13.28l-1.63,1.6c-1.38-1.54-3.26-3.13-5.66-4.86l1.63-1.57c2.24,1.6,4.13,3.23,5.66,4.83Zm5.38-1.98v-3.39h2.24v3.39h5.38v-3.39h2.24v3.39h4.06v2.08h-4.06v3.81h5.09v2.11h-5.25c1.31,2.21,3.39,3.97,6.24,5.25l-.96,1.98c-1.76-.93-3.23-1.98-4.42-3.14v6.69h-9.76v3.07c0,.83,.45,1.25,1.41,1.28h8.61c.64-.03,1.06-.29,1.31-.77,.19-.42,.38-1.38,.51-2.91l2.18,.71c-.16,1.6-.38,2.75-.64,3.46-.45,1.06-1.34,1.6-2.69,1.63h-10.11c-1.92,0-2.85-.86-2.85-2.59v-9.5c-1.12,1.02-2.37,1.95-3.74,2.82l-1.18-1.95c3.14-1.76,5.28-3.78,6.43-6.02h-5.06v-2.11h5.02v-3.81h-3.78v-2.08h3.78Zm9.98,11.52c-1.02-1.09-1.86-2.27-2.5-3.52h-5.31c-.51,1.25-1.22,2.43-2.11,3.52h9.92Zm-1.57,5.28v-3.33h-7.62v3.33h7.62Zm-.8-10.91v-3.81h-5.38v3.81h5.38Z"/>
  </g>
  <g>
    <path class="cls-4" d="M277.19,87.52c-.8,3.23-1.92,6.05-3.36,8.45l-1.89-1.22c1.47-2.3,2.53-4.86,3.17-7.68l2.08,.45Zm-4.83-7.87v-2.08h3.71c-.45-1.28-.96-2.5-1.54-3.62l2.02-.74c.58,1.22,1.09,2.66,1.57,4.35h3.46c.54-1.38,1.02-2.82,1.44-4.35l2.08,.7c-.45,1.34-.93,2.56-1.44,3.65h3.65v2.08h-6.27v3.55h5.73v2.08h-5.73v11.65h-2.3v-11.65h-5.86v-2.08h5.86v-3.55h-6.37Zm6.46-9.34c-.45-.96-.9-1.86-1.41-2.66l2.4-.38c.42,.9,.83,1.92,1.25,3.04h6.05v2.11h-14.43v-2.11h6.14Zm7.49,22.17l-1.95,.74c-.54-1.98-1.22-3.9-1.98-5.79l1.95-.51c.83,2.05,1.5,3.9,1.98,5.57Zm14.3-22.56c-2.82,1.02-5.95,1.66-9.41,1.86v5.89h10.24v2.21h-3.33v17.02h-2.27v-17.02h-4.64v3.55c-.13,5.57-1.34,10.02-3.65,13.34l-1.66-1.7c1.92-2.81,2.94-6.69,3.1-11.65v-13.5c3.87-.06,7.36-.77,10.46-2.08l1.15,2.08Z"/>
    <path class="cls-4" d="M311.95,67.61v6.46h6.53c0,9.98-.16,16.16-.48,18.53-.32,2.62-1.89,3.97-4.7,3.97-.48,0-1.28-.06-2.43-.13l-.58-2.11c1.02,.06,1.92,.13,2.69,.13,1.63,0,2.59-.93,2.85-2.75,.19-1.66,.32-6.82,.38-15.39h-4.25c-.13,9.44-2.24,16.32-6.34,20.67l-1.7-1.5c3.71-4,5.63-10.4,5.73-19.17h-5.12v-2.24h5.12v-6.46h2.3Zm19.93,28.77h-2.24v-2.14h-6.02v2.14h-2.21v-24.09h10.46v24.09Zm-2.24-4.35v-17.54h-6.02v17.54h6.02Z"/>
    <path class="cls-4" d="M339.91,76.03v-8.35h2.34v8.35h3.26v2.24h-3.26v10.53c.93-.32,1.86-.7,2.78-1.09v2.27c-2.66,1.15-5.5,2.08-8.51,2.85l-.58-2.3c1.34-.26,2.69-.61,3.97-.99v-11.26h-3.84v-2.24h3.84Zm17.21-8.51v4.03h7.52v1.12c-.35,1.86-.9,3.68-1.63,5.47l-2.14-.58c.54-1.15,1.02-2.46,1.41-3.87h-5.15v6.4h5.54v1.95c-.8,3.33-2.24,6.14-4.29,8.51,1.92,1.63,4.32,3.07,7.14,4.29l-1.28,2.02c-2.91-1.38-5.38-2.94-7.36-4.74-2.14,1.98-4.77,3.58-7.87,4.86l-1.47-1.79c3.14-1.18,5.7-2.72,7.74-4.61-2.34-2.5-3.9-5.28-4.67-8.38h-1.18c-.19,5.7-1.6,10.59-4.25,14.69l-1.79-1.57c2.5-3.71,3.78-8.38,3.9-14.08v-9.7h7.55v-4.03h2.3Zm-7.68,6.17v6.4h5.38v-6.4h-5.38Zm10.91,8.51h-7.65c.74,2.56,2.08,4.83,4.03,6.85,1.7-1.98,2.91-4.29,3.62-6.85Z"/>
  </g>
  <g>
    <path class="cls-5" d="M740.33,83.23l-1.34-1.92c5.57-2.5,10.11-5.66,13.63-9.54h1.86c3.07,3.81,7.58,6.94,13.53,9.44l-1.31,1.92c-1.7-.71-3.26-1.5-4.74-2.37v1.76h-7.26v4.61h11.39v2.14h-11.39v8.54h3.55c1.09-2.08,2.05-4.32,2.88-6.72l2.11,.74c-.8,2.24-1.7,4.26-2.66,5.98h6.62v2.21h-27.36v-2.21h6.62c-.67-2.05-1.54-3.94-2.56-5.73l2.08-.77c.99,1.79,1.89,3.97,2.72,6.5h3.68v-8.54h-11.42v-2.14h11.42v-4.61h-7.26v-1.86c-1.54,.93-3.14,1.79-4.8,2.56Zm13.21-9.28c-2.4,2.5-5.09,4.67-8.06,6.5h15.94c-3.14-1.86-5.76-4.03-7.87-6.5Z"/>
    <path class="cls-5" d="M786.5,72.8v2.08h-15.2v-2.08h15.2Zm-5.22,27.84l-.58-2.05,2.24,.1c.61,0,.93-.26,.93-.77v-10.27h-10.02v13.21h-2.02v-15.13h14.05v12.64c0,1.5-.77,2.27-2.24,2.27h-2.37Zm3.33-23.71v6.88h-11.49v-6.88h11.49Zm-5.47,16c.61-1.34,1.12-2.78,1.57-4.29l1.6,.54c-.45,1.41-.96,2.66-1.47,3.74h1.95v1.79h-3.07v5.76h-1.86v-5.76h-2.91v-1.79h4.19Zm3.42-14.21h-7.39v3.26h7.39v-3.26Zm-4.35,13.66l-1.47,.38c-.38-1.18-.83-2.3-1.38-3.39l1.5-.48c.51,.99,.96,2.14,1.34,3.49Zm13.73-15.23v-5.5h2.14v5.5h4.64v12.8h-4.64v7.14c1.06-.22,2.08-.45,3.07-.67-.38-1.34-.77-2.62-1.22-3.87l1.79-.58c.9,2.37,1.7,5.06,2.4,8.13l-1.98,.48c-.16-.77-.32-1.54-.48-2.24-3.2,.8-6.59,1.47-10.17,1.98l-.54-2.14c1.73-.19,3.39-.45,4.99-.7v-7.52h-4.54v-12.8h4.54Zm.13,2.05h-2.69v8.7h2.69v-8.7Zm4.67,0h-2.75v8.7h2.75v-8.7Z"/>
    <path class="cls-5" d="M815.53,71.55v4.96h3.46v-4.96h2.11v4.96h9.89v2.02h-7.1l-1.47,3.46h7.87v1.98h-11.65v2.4h11.04v1.92h-11.04v2.37h12.67v1.98h-10.02c2.27,2.37,5.76,4.22,10.5,5.57l-.96,2.02c-5.63-1.92-9.6-4.45-11.9-7.58h-.29v8.13h-2.24v-8.13h-.26c-2.05,2.91-5.98,5.44-11.74,7.58l-1.21-1.98c5.18-1.63,8.73-3.49,10.65-5.6h-10.11v-1.98h12.67v-2.37h-11.04v-1.92h11.04v-2.4h-11.71v-1.98h7.65l-1.76-3.46h-6.53v-2.02h9.38v-4.96h2.11Zm-4.38,4l-1.82,.77c-.7-1.5-1.41-2.82-2.18-3.94l1.79-.7c.86,1.21,1.6,2.5,2.21,3.87Zm10.5,2.98h-8.83l1.73,3.46h5.66l1.44-3.46Zm6.08-6.08c-.8,1.54-1.73,2.85-2.82,4l-1.57-1.12c1.02-1.05,1.89-2.3,2.66-3.74l1.73,.86Z"/>
    <path class="cls-5" d="M862.47,72.96v2.24h-11.9v12.09h13.12v2.21h-13.12v11.33h-2.37v-11.33h-12.86v-2.21h12.86v-12.09h-11.58v-2.24h25.85Zm-18.49,11.62l-2.14,1.06c-1.09-2.75-2.24-5.18-3.46-7.33l2.14-1.06c1.22,2.24,2.37,4.67,3.46,7.33Zm16.8-6.5c-.96,2.53-2.24,4.99-3.81,7.42l-2.05-1.06c1.57-2.5,2.82-4.93,3.74-7.36l2.11,.99Z"/>
    <path class="cls-5" d="M870.54,80.03v-8.42h2.34v8.42h3.29v2.24h-3.29v10.78c1.54-.45,3.01-.93,4.48-1.5v2.4c-3.1,1.18-6.46,2.18-10.08,2.94l-.61-2.43c1.34-.22,2.62-.48,3.87-.8v-11.39h-3.52v-2.24h3.52Zm14.08-8.42c-.35,1.66-.8,3.26-1.38,4.8h11.74c0,11.01-.19,17.76-.54,20.32-.35,2.56-1.89,3.87-4.61,3.87-.9,0-2.37-.06-4.48-.13l-.58-2.18c1.79,.06,3.33,.13,4.64,.13,1.6,0,2.53-.83,2.82-2.5,.29-1.86,.45-7.62,.51-17.28h-10.43c-1.09,2.34-2.4,4.42-4,6.27l-1.54-1.98c2.72-3.17,4.58-7.04,5.54-11.62l2.3,.29Zm6.08,18.27v2.02h-10.56v-2.02h10.56Zm-.54-6.02v2.05h-9.44v-2.05h9.44Z"/>
    <path class="cls-5" d="M907.46,71.52v3.39h4.99v2.05h-4.99v3.78h6.18v2.11h-2.72c-.26,1.6-.64,3.1-1.09,4.51h2.72v2.05h-5.09v3.81h6.21v2.11h-6.21v5.5h-2.24v-5.5h-6.3v-2.11h6.3v-3.81h-5.15v-2.05h2.75c-.32-1.66-.67-3.17-1.02-4.51h-2.72v-2.11h6.14v-3.78h-5.02v-2.05h5.02v-3.39h2.24Zm1.38,11.33h-4.99c.35,1.34,.7,2.85,1.02,4.51h2.85c.51-1.41,.86-2.91,1.12-4.51Zm7.84,17.98h-2.18v-28.03h12.16c0,3.58-.22,5.98-.61,7.17-.38,1.18-1.57,1.79-3.55,1.79h-2.11l-.64-1.98c.45,0,1.02,.03,1.7,.03,.77,0,1.31-.06,1.7-.16,.38-.13,.64-.35,.83-.74,.26-.64,.38-1.98,.45-4.03h-7.74v9.41h10.21v1.98c-.58,3.52-1.6,6.5-3.1,8.93,1.28,1.41,2.78,2.72,4.54,3.87l-1.5,1.76c-1.66-1.25-3.1-2.53-4.29-3.87-1.28,1.6-2.82,2.94-4.61,3.97l-1.12-1.98c1.7-.99,3.14-2.24,4.29-3.78-1.95-2.69-3.14-5.63-3.55-8.8h-.86v14.46Zm5.63-7.49c1.15-1.98,1.95-4.32,2.46-6.98h-5.18c.38,2.56,1.28,4.86,2.72,6.98Z"/>
    <path class="cls-5" d="M931.05,74.84v-2.05h12.35v2.05h-3.68v3.74h2.78v19.94h-8.96v1.98h-1.66v-21.92h2.78v-3.74h-3.62Zm9.79,21.82v-8.03h-1.28c-1.02,0-1.5-.58-1.5-1.66v-6.62h-1.73v2.3c-.03,3.33-.7,5.76-2.05,7.33l-.74-.67v7.36h7.29Zm-5.7-14.02v-2.3h-1.6v8.48c1.02-1.41,1.57-3.46,1.6-6.18Zm4.77,8.9v1.92h-5.41v-1.92h5.41Zm-1.82-16.7h-1.79v3.74h1.79v-3.74Zm1.15,11.84c0,.35,.19,.54,.58,.54h1.02v-6.88h-1.6v6.33Zm6.72,1.34l-1.31,.64c-.58-2.94-1.15-5.54-1.79-7.81l1.25-.54c.71,2.34,1.31,4.9,1.86,7.71Zm2.4-16.19v14.24c-.06,6.78-1.28,11.78-3.65,14.91l-1.6-1.41c2.14-2.82,3.23-7.3,3.3-13.5v-14.24h1.95Zm3.07,16.32l-1.06,.54c-.51-2.94-1.05-5.57-1.63-7.84l1.02-.48c.64,2.37,1.18,4.96,1.66,7.78Zm2.3-16.19v28.51h-1.86v-28.51h1.86Zm2.98,16.03l-1.09,.51c-.45-2.94-.96-5.54-1.54-7.84l1.02-.45c.58,2.37,1.12,4.96,1.6,7.78Zm2.34-16.25v29.09h-1.95v-29.09h1.95Z"/>
    <path class="cls-5" d="M979.27,90.88c.42,.54,.64,1.28,.64,2.24,0,1.41-.42,2.66-1.25,3.71-.83,1.02-1.95,1.73-3.3,2.11v-1.6c.83-.26,1.5-.74,2.02-1.41,.45-.64,.7-1.34,.7-2.11-.13,.06-.38,.1-.7,.1-.54,0-.99-.19-1.34-.54-.38-.38-.58-.86-.58-1.41,0-.61,.16-1.09,.54-1.44,.38-.38,.9-.54,1.54-.54,.7,0,1.28,.29,1.73,.9Zm-.35-12.13c.38,.35,.58,.83,.58,1.41s-.19,1.02-.58,1.41c-.38,.35-.83,.54-1.41,.54s-1.06-.19-1.41-.54c-.38-.38-.54-.83-.54-1.41s.16-1.06,.54-1.41c.35-.38,.83-.58,1.41-.58s1.02,.19,1.41,.58Z"/>
    <path class="cls-5" d="M1020.71,81.18v10.62h-10.02v2.59h12.61v1.98h-12.61v4.45h-2.37v-4.45h-12.64v-1.98h12.64v-2.59h-10.02v-10.62h22.4Zm-12.48-8.61v6.66h-11.14v-6.66h11.14Zm-2.24,1.73h-6.66v3.23h6.66v-3.23Zm2.34,11.33v-2.59h-7.74v2.59h7.74Zm0,1.7h-7.74v2.62h7.74v-2.62Zm2.37-1.7h7.74v-2.59h-7.74v2.59Zm7.74,1.7h-7.74v2.62h7.74v-2.62Zm3.39-14.75v6.66h-11.1v-6.66h11.1Zm-2.21,1.66h-6.62v3.36h6.62v-3.36Z"/>
    <path class="cls-5" d="M1036.26,72.32c-.83,2.5-1.86,4.83-3.1,7.04v21.57h-2.3v-18.05c-1.06,1.41-2.21,2.78-3.46,4.1l-.74-2.46c3.39-3.84,5.89-8.22,7.46-13.18l2.14,.99Zm10.3,24.77c1.63-4.29,3.04-9.66,4.25-16.13l2.21,.58c-1.12,5.86-2.5,11.04-4.1,15.55h7.26v2.27h-20.64v-2.27h11.01Zm-1.86-20.41c-.45-1.7-.99-3.26-1.57-4.67l2.43-.42c.51,1.47,.99,3.17,1.44,5.09h8.35v2.21h-19.26v-2.21h8.61Zm-1.31,18.81l-2.14,.58c-.86-4.86-1.98-9.57-3.33-14.11l2.11-.64c1.25,4.13,2.37,8.86,3.36,14.17Z"/>
    <path class="cls-5" d="M1074.92,78.78c.38,.35,.58,.8,.58,1.38,0,.54-.19,.99-.58,1.38s-.86,.58-1.41,.58c-.58,0-1.02-.19-1.41-.58-.38-.38-.54-.83-.54-1.38,0-.58,.16-1.02,.54-1.38,.38-.42,.83-.61,1.41-.61,.54,0,1.02,.19,1.41,.61Zm0,11.71c.38,.35,.58,.8,.58,1.38,0,.54-.19,.99-.58,1.38-.38,.38-.86,.58-1.41,.58-.58,0-1.02-.19-1.41-.58-.38-.38-.54-.83-.54-1.38,0-.58,.16-1.02,.54-1.38,.38-.42,.83-.61,1.41-.61,.54,0,1.02,.19,1.41,.61Z"/>
    <path class="cls-5" d="M1106.98,88.32c-.13,.8-.29,1.57-.48,2.3h12.29v2.11h-13.09c-.74,1.47-1.73,2.78-2.94,3.9-2.08,1.86-5.76,3.33-11.01,4.42l-.96-2.24c4.67-.83,8.06-2.08,10.11-3.71,.83-.7,1.57-1.47,2.14-2.37h-10.78v-2.11h11.81c.29-.83,.51-1.66,.64-2.56l2.27,.26Zm-7.17-13.57c-.45-1.09-.96-2.08-1.5-2.98l2.37-.38c.51,.99,1.02,2.11,1.47,3.36h6.82c.58-1.15,.99-2.3,1.28-3.49l2.4,.32c-.32,1.12-.77,2.18-1.34,3.17h7.14v2.11h-11.78v3.07h10.08v1.98h-10.08v3.14h12.83v2.11h-27.97v-2.11h12.83v-3.14h-9.98v-1.98h9.98v-3.07h-11.78v-2.11h7.23Zm20.41,24.35l-1.31,1.98c-4.03-2.24-8.16-4.03-12.38-5.31l1.22-1.82c4.58,1.41,8.74,3.14,12.48,5.15Z"/>
    <path class="cls-5" d="M1151.21,82.72v2.24h-8.83v11.93c0,.9,.45,1.38,1.41,1.38h3.55c.7,0,1.18-.26,1.44-.74,.38-.58,.61-2.3,.74-5.18l2.11,.67c-.22,3.49-.64,5.6-1.28,6.34-.54,.64-1.41,.99-2.56,.99h-4.64c-2.02,0-3.01-.99-3.01-2.98v-12.42h-5.76v.48c-.1,4.16-.96,7.52-2.56,10.05-1.6,2.34-4.16,4.16-7.71,5.47l-1.25-1.95c3.46-1.28,5.86-2.94,7.23-5.06,1.28-2.18,1.98-5.02,2.05-8.51v-.48h-8.29v-2.24h27.36Zm-2.78-9.41v2.24h-22.11v-2.24h22.11Z"/>
  </g>
  <g>
    <path class="cls-5" d="M51.81,1092.86h-9.12v-1.45h4.7c-.4-1.08-1.3-2.15-2.32-2.77l1.28-.7c.87,.45,2.15,1.78,2.45,2.83l-.9,.6,3.92,.05v1.45Zm-.95,3.4h-7.15v-1.42h7.15v1.42Zm.05,3.45h-7.17v-1.42h7.17v1.42Zm-1.85,10.3v-1.5h-3.55v1.52h-1.52v-8.15h6.6v8.12h-1.52Zm-3.55-6.7v3.77h3.55v-3.77h-3.55Zm19.52-9.95h-5.7v5.85h4.9v1.4h-4.9v7.35h6.02v1.42h-13.97v-1.42h6.42v-7.35h-5v-1.4h5v-5.85h-5.7v-1.42h12.92v1.42Zm-8.4-5.72c1.22,.83,2.25,1.97,2.8,3.27l-1.25,.9c-.45-1.37-1.65-2.65-2.87-3.4l1.32-.78Z"/>
    <path class="cls-5" d="M77.68,1092.81h2.5v2.5h-2.5v-2.5Zm0,10.45h2.5v2.5h-2.5v-2.5Z"/>
    <path class="cls-5" d="M97.73,1105.11h-5.27v-1.42h5.27l-.02-2.5-4.05-.03v-1.42h3.03c-.25-.45-.4-.75-.72-1.17-.08-.05-.18-.25-.2-.33-.38-.47-.82-.88-1.22-1.32,.48-.23,.95-.5,1.45-.7,.92,1.05,1.58,2.27,2.02,3.52h.92c.88-1.08,1.3-2.25,1.77-3.47l1.38,.55c-.43,1.05-.8,2.02-1.55,2.92h2.65l-.03,1.45h-3.85l.02,2.47,4.8,.02,.03,1.42-4.85,.03v5.45l-1.6-.02,.02-5.45Zm-.12-14.6l-.02-2.72,1.65,.02v2.7l3.95-.03-.03,1.47h-3.92v2.47h4.82v1.45h-11.32l-.03-1.42h4.95v-2.5h-4.17l-.03-1.45h4.15Zm16.02-1.58c-.07,1.85-.25,3.6-.9,5.22-.22,.58-.85,1.05-1.47,1.17-.97,.1-1.92-.08-2.82-.2l-.5-1.55c.2-.03,.4,.1,.62,.12,.7,.1,1.43,.25,2.17,.17,.55-.05,.62-.62,.8-1,.22-.83,.38-1.57,.45-2.45h-5.72l.03,6.5,7.55-.02c-.08,3.15-.92,5.92-2.3,8.57,.72,1.15,1.8,2.5,3.7,3.67l-1.1,1.2c-1.35-.83-2.52-2.15-3.47-3.4l-3.17,3.37-1-1.17c1.28-1.07,2.35-2.3,3.27-3.65-1.17-2.17-1.97-4.52-2.22-7.1h-1.22l.02,12.12h-1.72l.02-21.57,9-.03Zm-4.6,9.47c.22,1.9,.8,3.7,1.57,5.4,.85-1.67,1.48-3.42,1.55-5.4h-3.12Z"/>
    <path class="cls-5" d="M127.13,1099.88c.83-1.6,1.33-3.25,1.3-5.32l1.27,.35c0,2.27-.6,4.17-1.52,6.02l-1.05-.33v7.65h-7.4v1.5h-1.45v-16.72h2.62v-3h-3.67v-1.45h11.15v1.45h-3.87v3h2.62v6.85Zm-7.4-5.42v8.4h5.95v-2.12h-1.02c-.67,0-1.4-.37-1.4-1.35v-4.92h-1.12c0,2.62-.05,5.3-1.2,7.42l-1.08-.9c1.02-1.87,1.02-4.15,1.02-6.52h-1.15Zm5.95,9.77h-5.95v2.6h5.95v-2.6Zm-2.42-14.2h-1.12v3h1.12v-3Zm2.42,4.42h-1.17v4.52c0,.27,.17,.4,.47,.4h.7v-4.92Zm5.9-6.75v7.27l.33-.1c.7,1.12,1.3,2.38,1.55,3.7l.05-9.27h1.45v5.82l.65-.2c.67,.97,1.25,2.12,1.47,3.3l.05-10.45h1.47v22.62h-1.47v-10.27l-.92,.33c-.15-1.42-.62-2.72-1.2-3.97l-.05,11.77h-1.45v-8.15l-1.03,.32c-.15-1.25-.38-2.32-.85-3.4l-.05,4.1c-.02,2.85-.8,5.45-2.42,7.57-.47,.6-.9,1.05-1.62,1.7l-1.05-1.17c1.07-.77,1.9-1.87,2.47-3,1.3-2.55,1.15-5.57,1.15-8.45v-10.07h1.47Z"/>
    <path class="cls-5" d="M160.53,1096.66h-14.67v-1.67h14.67v1.67Zm0,6.57l-14.67-.03v-1.67h14.67v1.7Z"/>
    <path class="cls-5" d="M178.43,1102.43l.02,1.45h-4.62v6.45h-1.6l.03-6.02c-1.05,2.15-2.82,3.7-4.87,4.77-.35-.38-.75-.83-1.15-1.2,1.88-.8,3.65-2.15,4.57-3.97h-3.2v-1.47h4.62l.03-1.9-5.52-.03-.03-1.47h4.37c-.25-1.05-.95-2-1.9-2.6,.4-.22,.82-.27,1.2-.45l-2.77-.05v-1.5l4.5,.02c-.05-.25-.25-.5-.4-.72-.35-.45-.75-.77-1.2-1.07,.53-.2,.97-.42,1.47-.65,.15,.1,.35,.3,.55,.4,.02-.33,.02-.78,0-1.15l-5.32,.03v-1.55h5.3l.03-2.15h1.52v2.15h3.32l.03,1.52h-3.35v1.92h-.95c.28,.38,.43,.85,.6,1.27l4.67-.02v1.5l-2.5-.02,.95,.55c-.3,.95-.88,1.87-1.58,2.57h4.15l.03,1.52h-5.6v1.85l4.6,.03Zm-7.77-6.52c.82,.7,1.62,1.4,1.88,2.42l-1.33,.67,2.27,.05c.92-.8,1.47-1.97,1.82-3.12l-4.65-.02Zm4.47,8.52c1.17,.42,2.27,1.22,3.07,2.25-.3,.4-.7,.8-1.05,1.17-.85-1.1-1.9-1.9-3.07-2.47l1.05-.95Zm1.55,4.82c1.42-1.02,2.67-2.47,3.17-4.2,.53-1.85,.45-3.95,.45-5.9v-4.75c2.5-.17,4.95-.6,6.9-1.95l1.15,1.15c-1.85,1.25-4.1,1.77-6.4,2.15l-.02,3.05h7.27v1.52h-3.22l.02,10.07h-1.57l-.03-10.07h-2.45c.08,3.12-.27,6.6-2.57,8.87l-1.3,1.27-1.4-1.22Zm5-19.5l-.03-2.12h1.6l.03,2.15,5.27-.02v1.5h-5.27l-.03,2.05h-1.57l-.03-2.05-3.35-.02v-1.47h3.37Z"/>
    <path class="cls-5" d="M197.71,1094.11c-1.45,1.6-3.3,3.2-5.3,3.92l-.92-1.27c1.92-.6,3.65-1.82,5.2-3.6l1.02,.95Zm-6.17,14.97c3.1-.15,6-.78,8.57-2.12l.95,1.08c-2.65,1.47-5.55,2.27-8.72,2.52l-.8-1.47Zm4.7-16.95c-.5-.42-1-1-1.6-1.35-.75-.45-1.52-.92-2.42-1.1l.95-1.17c1.47,.47,2.8,1.33,4.02,2.42l-.95,1.2Zm13.72,14.55l-14.67-.03v-9.8h14.65l.03,9.82Zm-1.55-5.72l-11.6-.03v1.6h11.6v-1.57Zm-11.57,4.32l11.57,.03v-1.47l-11.6-.03,.03,1.47Zm11.57-6.97l-11.57-.03v1.4l11.57,.03v-1.4Zm-1.8-7.25c-.22,.5-.42,.92-.62,1.35,.55,.67,.95,.95,1.65,1.37,.92,.6,1.97,1.08,3.07,1.38,.9,.22,1.85,.33,2.8,.4l-.75,1.45c-1.32-.1-2.57-.47-3.77-.85-1.35-.58-2.67-1.25-3.75-2.42l-.1,.03c-1.65,1.77-3.92,2.52-6.27,2.85l-.78-1.4c1.97-.2,3.88-.7,5.42-1.82,.72-.67,1.3-1.4,1.55-2.32h-3.1c-.65,.9-1.43,1.8-2.38,2.42l-1.27-.92c1.77-.95,3.15-3.07,3.9-4.85l1.2,.55c-.1,.4-.32,.92-.53,1.33h9.52c-.3,1.47-.95,2.72-1.57,3.87l-1.3-.65c.55-.7,.7-1.1,.9-1.75h-3.82Zm6,19.47c-2.6-1.38-5.3-2.12-8.37-2.35l.9-1.3c3.02,.2,5.77,1.12,8.35,2.4l-.88,1.25Z"/>
    <path class="cls-5" d="M226.58,1107.08v-7.12h-7.12v-1.67h7.12v-7.12h1.75v7.12h7.12v1.67h-7.12v7.12h-1.75Z"/>
    <path class="cls-5" d="M250.78,1102.98c.25-.78,.4-1.6,.48-2.42l1.5,.35c-.05,.65-.2,1.42-.42,2.07h4.45c-.15-.28-.47-.62-.9-.97l1.45-.28c.4,.3,.67,.8,.88,1.25h4.1v1.42h-7.95c2.07,3.07,5.72,4.25,9.37,4.45l-.9,1.58c-3.12-.35-6.05-1.15-8.35-3.47-.77-.77-1.47-1.62-2.1-2.55h-.42c-.6,1.35-1.62,2.77-3,3.62-2.2,1.37-4.67,2.15-7.37,2.4l-1.12-1.6c3.65-.23,7.2-1.03,9.5-3.97l.25-.45h-8.35v-1.42h8.92Zm-1.55-15.07v13.55h-1.5v-4.8h-2.32c0,1.85-.53,3.75-2.12,4.8l-.57,.38-1.32-1.15c.95-.4,1.87-.95,2.25-2.15,.18-.55,.3-1.12,.3-1.87h-2.12v-1.42h5.92v-1.95h-4.7v-4.42h1.5v3h3.2v-3.95h1.5Zm12.55,3.17c-2.62,3.37-6.67,4.35-10.85,4.57l-.97-1.5c1.2,.1,2.38,.03,3.55-.15-.32-.5-.82-.88-1.35-1.17l1.22-.72c.85,.37,1.35,1.2,1.55,1.65,.5-.08,.83-.17,1.15-.33-.27-.55-.9-1.07-1.47-1.42l1.28-.65c.6,.27,1.1,1.07,1.35,1.6,1.02-.4,2.02-1.15,2.87-1.97h-6.32c-.88,.55-1.75,.92-2.72,1.25l-1.03-1.28c1.5-.35,2.88-1,4.1-1.92,.55-.43,.97-.9,1.5-1.55l1.15,.7c-.35,.45-.75,.95-1.17,1.38h6.17v1.52Zm-1.57,8.65c0,.82-.55,1.62-1.6,1.62h-2.1l-.45-1.4c.8,.1,1.6,.12,2.15,.12,.45,0,.5-.22,.5-.65v-1.88h-8.25v-1.42h8.25v-1.7h1.5v1.7h2.35v1.42h-2.35v2.17Zm-5.67,1.5c-.93-1.12-2.22-1.8-3.52-2.17l1.02-.98c1.35,.3,2.52,1,3.57,2.03l-1.07,1.12Z"/>
    <path class="cls-5" d="M286.91,1109.36h-20.02v-1.47h9.22v-6.6l-7.1,.03-.02-1.5,7.15,.03v-3.37h-4.7v-1.25c-1.57,1.03-3.17,1.92-4.82,2.7l-1.08-1.32c3.35-1.6,6.7-3.57,9.27-6.52,.78-.9,1.45-1.82,2.05-2.77l1.27,.83-.3,.65c2.72,3.4,6.22,6.42,10.37,7.62l-1.25,1.27c-1.65-.55-3.2-1.42-4.62-2.4v1.2h-4.67l.03,3.35h6.97l.03,1.5h-7.02l.03,6.57,9.22-.02v1.5Zm-14.2-2.32c-.62-1.52-1.42-2.97-2.75-4.17l1.4-.65c.97,.75,2.45,3.02,2.85,4.15l-1.5,.67Zm1.05-13.67c-.65,.58-1.38,1.12-1.95,1.62h10.17c-1.85-1.33-3.67-3.22-5.07-4.9-1,1.17-2.05,2.3-3.15,3.27Zm5.32,12.97c1.52-1.05,2.72-2.7,3.47-4.3l1.25,.9c-.75,1.62-1.82,3.25-3.32,4.4l-1.4-1Z"/>
  </g>
  <g>
    <path d="M77.41,266.53v19.99h-1.09v-18.59c-1.32,1.51-2.94,2.58-4.9,3.14v-1.15c.95-.28,1.88-.7,2.72-1.26,.87-.59,1.65-1.29,2.32-2.13h.95Z"/>
    <path d="M96.54,278.76v1.01h-14.14v-1.01h14.14Z"/>
    <path d="M110.9,267.64c1.12,1.01,1.71,2.35,1.71,4.06s-.67,3.33-1.99,4.7c-.59,.62-1.96,1.68-4.14,3.19-3.16,2.16-4.87,4.12-5.15,5.88h11.31v1.04h-12.6c0-1.57,.64-3.08,1.99-4.54,.84-.95,2.18-2.07,4.03-3.36,1.9-1.37,3.14-2.32,3.64-2.83,1.2-1.26,1.82-2.63,1.82-4.09s-.48-2.52-1.4-3.33c-.9-.84-2.1-1.23-3.56-1.23-1.57,0-2.8,.5-3.7,1.51-1.01,1.06-1.51,2.6-1.51,4.56h-1.06c0-2.24,.59-4,1.79-5.26,1.12-1.23,2.63-1.82,4.48-1.82,1.74,0,3.19,.5,4.34,1.51Z"/>
    <path d="M117.06,273.33l-.64-.78c2.91-2.21,4.87-5.21,5.88-8.99l.98,.2c-.36,1.29-.81,2.46-1.32,3.53h18.03v.95h-9.18v5.54h8.2v.92h-8.2v7.06h10.11v.95h-10.11v6.58h-.92v-6.58h-13.36v-.95h4.93v-7.98h8.43v-5.54h-8.43c-1.12,2.02-2.6,3.72-4.4,5.1Zm12.82,8.43v-7.06h-7.45v7.06h7.45Z"/>
  </g>
  <g>
    <path d="M77.13,399.79c1.09,.98,1.65,2.27,1.65,3.84,0,2.38-1.09,3.92-3.22,4.65,1.12,.36,2.02,.95,2.66,1.79s.98,1.85,.98,3.02c0,1.76-.62,3.22-1.85,4.34-1.23,1.12-2.8,1.68-4.73,1.68-1.65,0-3.05-.45-4.2-1.32-1.46-1.12-2.27-2.8-2.44-5.04h1.09c.11,1.88,.79,3.3,2.02,4.26,.98,.73,2.16,1.12,3.53,1.12,1.62,0,2.97-.48,3.98-1.43,1.01-.95,1.51-2.13,1.51-3.58,0-1.32-.48-2.38-1.37-3.16-.9-.81-2.1-1.2-3.58-1.2h-1.9v-.95h1.68c1.54,0,2.72-.36,3.53-1.09,.81-.7,1.23-1.71,1.23-3.02s-.45-2.32-1.29-3.11c-.9-.84-2.1-1.23-3.61-1.23s-2.72,.42-3.61,1.32c-.9,.84-1.46,2.04-1.65,3.58h-1.06c.2-1.82,.87-3.28,1.99-4.34,1.09-1.06,2.55-1.57,4.34-1.57s3.22,.48,4.34,1.46Z"/>
    <path d="M96.54,410.96v1.01h-14.14v-1.01h14.14Z"/>
    <path d="M112.27,398.72v1.04h-10.02l-.76,8.12h.08c.56-.73,1.32-1.32,2.24-1.71,.84-.39,1.74-.56,2.69-.56,1.9,0,3.44,.56,4.62,1.74,1.2,1.2,1.82,2.88,1.82,5.04,0,1.93-.64,3.56-1.9,4.84-1.26,1.23-2.86,1.88-4.82,1.88-1.68,0-3.11-.48-4.28-1.4-1.34-1.01-2.07-2.41-2.21-4.2h1.12c.11,1.46,.73,2.63,1.79,3.47,.98,.76,2.18,1.15,3.58,1.15,1.65,0,3-.56,4.06-1.62,1.06-1.12,1.6-2.49,1.6-4.12,0-1.85-.53-3.3-1.57-4.34-1.01-.98-2.32-1.46-3.95-1.46-1.06,0-2.04,.25-2.94,.76-.9,.5-1.6,1.23-2.04,2.16h-1.06l.98-10.78h10.98Z"/>
    <path d="M117.06,405.53l-.64-.78c2.91-2.21,4.87-5.21,5.88-8.99l.98,.2c-.36,1.29-.81,2.46-1.32,3.53h18.03v.95h-9.18v5.54h8.2v.92h-8.2v7.06h10.11v.95h-10.11v6.58h-.92v-6.58h-13.36v-.95h4.93v-7.98h8.43v-5.54h-8.43c-1.12,2.02-2.6,3.72-4.4,5.1Zm12.82,8.43v-7.06h-7.45v7.06h7.45Z"/>
  </g>
  <g>
    <path d="M80.24,530.92v1.04h-10.02l-.76,8.12h.08c.56-.73,1.32-1.32,2.24-1.71,.84-.39,1.74-.56,2.69-.56,1.9,0,3.44,.56,4.62,1.74,1.2,1.2,1.82,2.88,1.82,5.04,0,1.93-.64,3.56-1.9,4.84-1.26,1.23-2.86,1.88-4.82,1.88-1.68,0-3.11-.48-4.28-1.4-1.34-1.01-2.07-2.41-2.21-4.2h1.12c.11,1.46,.73,2.63,1.79,3.47,.98,.76,2.18,1.15,3.58,1.15,1.65,0,3-.56,4.06-1.62,1.06-1.12,1.6-2.49,1.6-4.12,0-1.85-.53-3.3-1.57-4.34-1.01-.98-2.32-1.46-3.95-1.46-1.06,0-2.04,.25-2.94,.76s-1.6,1.23-2.04,2.16h-1.06l.98-10.78h10.98Z"/>
    <path d="M98.24,543.16v1.01h-14.14v-1.01h14.14Z"/>
    <path d="M113.36,530.92v.95l-7.76,19.04h-1.23l7.84-18.96h-11.51v-1.04h12.66Z"/>
    <path d="M117.06,537.73l-.64-.78c2.91-2.21,4.87-5.21,5.88-8.99l.98,.2c-.37,1.29-.81,2.46-1.32,3.53h18.03v.95h-9.18v5.54h8.2v.92h-8.2v7.06h10.11v.95h-10.11v6.58h-.92v-6.58h-13.36v-.95h4.93v-7.98h8.43v-5.54h-8.43c-1.12,2.02-2.6,3.72-4.4,5.1Zm12.82,8.43v-7.06h-7.45v7.06h7.45Z"/>
  </g>
  <g>
    <path d="M68.7,663.12v.95l-7.76,19.04h-1.23l7.84-18.96h-11.51v-1.04h12.66Z"/>
    <path d="M85.62,675.36v1.01h-14.14v-1.01h14.14Z"/>
    <path d="M94.35,663.12v19.99h-1.09v-18.59c-1.32,1.51-2.94,2.58-4.9,3.13v-1.15c.95-.28,1.88-.7,2.72-1.26,.87-.59,1.65-1.29,2.32-2.13h.95Z"/>
    <path d="M111.68,666.18c.84,1.74,1.29,4.06,1.29,6.94s-.45,5.18-1.29,6.94c-1.12,2.3-2.91,3.44-5.35,3.44s-4.23-1.15-5.35-3.44c-.87-1.74-1.29-4.06-1.29-6.94s.42-5.21,1.29-6.94c1.12-2.3,2.88-3.44,5.35-3.44s4.23,1.15,5.35,3.44Zm-9.83,.67c-.73,1.54-1.06,3.64-1.06,6.27s.34,4.7,1.06,6.27c.92,2.07,2.41,3.11,4.48,3.11s3.53-1.04,4.48-3.11c.73-1.57,1.09-3.67,1.09-6.27s-.36-4.7-1.09-6.27c-.95-2.07-2.44-3.11-4.48-3.11s-3.56,1.04-4.48,3.11Z"/>
    <path d="M117.06,669.93l-.64-.78c2.91-2.21,4.87-5.21,5.88-8.99l.98,.2c-.36,1.29-.81,2.46-1.32,3.53h18.03v.95h-9.18v5.54h8.2v.92h-8.2v7.06h10.11v.95h-10.11v6.58h-.92v-6.58h-13.36v-.95h4.93v-7.98h8.43v-5.54h-8.43c-1.12,2.02-2.6,3.72-4.4,5.1Zm12.82,8.43v-7.06h-7.45v7.06h7.45Z"/>
  </g>
  <g>
    <path d="M49.69,795.32v19.99h-1.09v-18.59c-1.32,1.51-2.94,2.58-4.9,3.14v-1.15c.95-.28,1.88-.7,2.72-1.26,.87-.59,1.65-1.29,2.32-2.13h.95Z"/>
    <path d="M67.02,798.38c.84,1.74,1.29,4.06,1.29,6.94s-.45,5.18-1.29,6.94c-1.12,2.3-2.91,3.44-5.35,3.44s-4.23-1.15-5.35-3.44c-.87-1.74-1.29-4.06-1.29-6.94s.42-5.21,1.29-6.94c1.12-2.3,2.88-3.44,5.35-3.44s4.23,1.15,5.35,3.44Zm-9.83,.67c-.73,1.54-1.06,3.64-1.06,6.27s.34,4.7,1.06,6.27c.92,2.07,2.41,3.11,4.48,3.11s3.53-1.04,4.48-3.11c.73-1.57,1.09-3.67,1.09-6.27s-.36-4.7-1.09-6.27c-.95-2.07-2.44-3.11-4.48-3.11s-3.56,1.04-4.48,3.11Z"/>
    <path d="M85.62,807.56v1.01h-14.14v-1.01h14.14Z"/>
    <path d="M94.35,795.32v19.99h-1.09v-18.59c-1.32,1.51-2.94,2.58-4.9,3.14v-1.15c.95-.28,1.88-.7,2.72-1.26,.87-.59,1.65-1.29,2.32-2.13h.95Z"/>
    <path d="M112.27,795.32v1.04h-10.02l-.76,8.12h.08c.56-.73,1.32-1.32,2.24-1.71,.84-.39,1.74-.56,2.69-.56,1.9,0,3.44,.56,4.62,1.74,1.2,1.2,1.82,2.88,1.82,5.04,0,1.93-.64,3.56-1.9,4.84-1.26,1.23-2.86,1.88-4.82,1.88-1.68,0-3.11-.48-4.28-1.4-1.34-1.01-2.07-2.41-2.21-4.2h1.12c.11,1.46,.73,2.63,1.79,3.47,.98,.76,2.18,1.15,3.58,1.15,1.65,0,3-.56,4.06-1.62,1.06-1.12,1.6-2.49,1.6-4.12,0-1.85-.53-3.3-1.57-4.34-1.01-.98-2.32-1.46-3.95-1.46-1.06,0-2.04,.25-2.94,.76-.9,.5-1.6,1.23-2.04,2.16h-1.06l.98-10.78h10.98Z"/>
    <path d="M117.06,802.13l-.64-.79c2.91-2.21,4.87-5.21,5.88-8.99l.98,.2c-.36,1.29-.81,2.46-1.32,3.53h18.03v.95h-9.18v5.54h8.2v.92h-8.2v7.06h10.11v.95h-10.11v6.58h-.92v-6.58h-13.36v-.95h4.93v-7.98h8.43v-5.54h-8.43c-1.12,2.02-2.6,3.72-4.4,5.1Zm12.82,8.43v-7.06h-7.45v7.06h7.45Z"/>
  </g>
  <g>
    <path d="M77.41,927.53v19.99h-1.09v-18.59c-1.32,1.51-2.94,2.58-4.9,3.14v-1.15c.95-.28,1.88-.7,2.72-1.26,.87-.59,1.65-1.29,2.32-2.13h.95Z"/>
    <path d="M95.33,927.53v1.04h-10.02l-.76,8.12h.08c.56-.73,1.32-1.32,2.24-1.71,.84-.39,1.74-.56,2.69-.56,1.9,0,3.44,.56,4.62,1.74,1.2,1.2,1.82,2.88,1.82,5.04,0,1.93-.64,3.56-1.9,4.84-1.26,1.23-2.86,1.88-4.82,1.88-1.68,0-3.11-.48-4.29-1.4-1.34-1.01-2.07-2.41-2.21-4.2h1.12c.11,1.46,.73,2.63,1.79,3.47,.98,.76,2.18,1.15,3.58,1.15,1.65,0,3-.56,4.06-1.62,1.06-1.12,1.6-2.49,1.6-4.12,0-1.85-.53-3.3-1.57-4.34-1.01-.98-2.32-1.46-3.95-1.46-1.06,0-2.04,.25-2.94,.76s-1.6,1.23-2.04,2.16h-1.06l.98-10.78h10.98Z"/>
    <path d="M100.12,934.33l-.64-.78c2.91-2.21,4.87-5.21,5.88-8.99l.98,.2c-.36,1.29-.81,2.46-1.32,3.53h18.03v.95h-9.18v5.54h8.2v.92h-8.2v7.06h10.11v.95h-10.11v6.58h-.92v-6.58h-13.36v-.95h4.93v-7.98h8.43v-5.54h-8.43c-1.12,2.02-2.6,3.72-4.4,5.1Zm12.82,8.43v-7.06h-7.45v7.06h7.45Z"/>
    <path d="M134.78,933.21v6.55h6.55v1.01h-6.55v6.58h-1.01v-6.58h-6.58v-1.01h6.58v-6.55h1.01Z"/>
  </g>
  <g>
    <path class="cls-2" d="M755.72,169.47c.32-.74,.74-1.38,1.27-1.9s1.18-.93,1.93-1.21,1.6-.43,2.55-.43c.72,0,1.38,.11,1.99,.33,.61,.22,1.13,.53,1.58,.94,.44,.41,.79,.9,1.04,1.49,.25,.58,.38,1.24,.38,1.97s-.12,1.37-.38,1.96-.58,1.13-.99,1.62c-.41,.49-.88,.94-1.41,1.35-.53,.41-1.09,.79-1.68,1.15-.58,.36-1.17,.7-1.75,1.03-.58,.32-1.12,.65-1.62,.96-.28,.18-.57,.38-.86,.6s-.57,.45-.83,.71-.5,.53-.71,.82c-.22,.29-.38,.6-.5,.91h9.22l-.4,1.88h-11.28c.07-.9,.25-1.69,.54-2.36,.29-.68,.66-1.28,1.1-1.81,.44-.53,.95-1.01,1.51-1.43,.57-.42,1.16-.82,1.77-1.2,.62-.38,1.24-.76,1.88-1.12,.63-.37,1.24-.77,1.83-1.2,.32-.25,.62-.5,.9-.76,.28-.26,.53-.53,.74-.83,.21-.29,.37-.61,.49-.96,.12-.35,.17-.75,.17-1.2,0-.95-.27-1.68-.8-2.2s-1.26-.78-2.17-.78c-.6,0-1.13,.11-1.6,.34s-.86,.53-1.19,.9c-.32,.38-.58,.82-.76,1.32-.18,.51-.29,1.04-.33,1.59h-2.25c.1-.92,.31-1.75,.62-2.49Z"/>
    <path class="cls-2" d="M768.1,174.88c.12-.81,.32-1.62,.59-2.45,.27-.83,.61-1.63,1.02-2.41,.42-.78,.91-1.48,1.48-2.08,.57-.6,1.22-1.08,1.97-1.45,.75-.37,1.58-.55,2.5-.55,1.55,0,2.73,.53,3.55,1.58s1.23,2.76,1.23,5.12c0,.55-.05,1.21-.16,1.98-.11,.77-.28,1.57-.51,2.41s-.55,1.67-.94,2.5c-.39,.82-.87,1.56-1.44,2.21-.57,.65-1.22,1.18-1.97,1.59s-1.62,.61-2.6,.61-1.71-.17-2.34-.53c-.62-.35-1.13-.83-1.51-1.45s-.65-1.34-.81-2.18c-.16-.83-.24-1.73-.24-2.7,0-.67,.06-1.4,.19-2.21Zm2.71,5.95c.43,.84,1.17,1.26,2.22,1.26,.65,0,1.23-.18,1.75-.55,.52-.37,.97-.83,1.35-1.4,.38-.57,.7-1.2,.96-1.89,.26-.69,.47-1.37,.62-2.03,.16-.66,.28-1.26,.35-1.8,.08-.54,.11-.94,.11-1.19,0-.33,0-.7,.01-1.09,0-.39,0-.79-.02-1.19-.03-.4-.08-.79-.17-1.18-.09-.38-.24-.72-.44-1.01-.2-.29-.47-.53-.8-.7-.33-.17-.76-.26-1.27-.26-.63,0-1.21,.18-1.73,.54-.52,.36-.97,.83-1.36,1.4-.39,.58-.73,1.22-1.01,1.94s-.52,1.43-.7,2.15c-.18,.72-.32,1.39-.4,2.03-.08,.63-.12,1.16-.12,1.57,0,1.42,.22,2.55,.65,3.39Z"/>
    <path class="cls-2" d="M782,174.88c.12-.81,.32-1.62,.59-2.45,.27-.83,.61-1.63,1.02-2.41,.42-.78,.91-1.48,1.48-2.08,.57-.6,1.22-1.08,1.97-1.45,.75-.37,1.58-.55,2.5-.55,1.55,0,2.73,.53,3.55,1.58s1.23,2.76,1.23,5.12c0,.55-.05,1.21-.16,1.98-.11,.77-.28,1.57-.51,2.41s-.55,1.67-.94,2.5c-.39,.82-.87,1.56-1.44,2.21-.57,.65-1.22,1.18-1.97,1.59s-1.62,.61-2.6,.61-1.71-.17-2.34-.53c-.62-.35-1.13-.83-1.51-1.45s-.65-1.34-.81-2.18c-.16-.83-.24-1.73-.24-2.7,0-.67,.06-1.4,.19-2.21Zm2.71,5.95c.43,.84,1.17,1.26,2.22,1.26,.65,0,1.23-.18,1.75-.55,.52-.37,.97-.83,1.35-1.4,.38-.57,.7-1.2,.96-1.89,.26-.69,.47-1.37,.62-2.03,.16-.66,.28-1.26,.35-1.8,.08-.54,.11-.94,.11-1.19,0-.33,0-.7,.01-1.09,0-.39,0-.79-.02-1.19-.03-.4-.08-.79-.17-1.18-.09-.38-.24-.72-.44-1.01-.2-.29-.47-.53-.8-.7-.33-.17-.76-.26-1.27-.26-.63,0-1.21,.18-1.73,.54-.52,.36-.97,.83-1.36,1.4-.39,.58-.73,1.22-1.01,1.94s-.52,1.43-.7,2.15c-.18,.72-.32,1.39-.4,2.03-.08,.63-.12,1.16-.12,1.57,0,1.42,.22,2.55,.65,3.39Z"/>
    <path class="cls-2" d="M795.9,174.88c.12-.81,.32-1.62,.59-2.45,.27-.83,.61-1.63,1.02-2.41,.42-.78,.91-1.48,1.48-2.08,.57-.6,1.22-1.08,1.97-1.45,.75-.37,1.58-.55,2.5-.55,1.55,0,2.73,.53,3.55,1.58s1.23,2.76,1.23,5.12c0,.55-.05,1.21-.16,1.98-.11,.77-.28,1.57-.51,2.41s-.55,1.67-.94,2.5c-.39,.82-.87,1.56-1.44,2.21-.57,.65-1.22,1.18-1.97,1.59s-1.62,.61-2.6,.61-1.71-.17-2.34-.53c-.62-.35-1.13-.83-1.51-1.45s-.65-1.34-.81-2.18c-.16-.83-.24-1.73-.24-2.7,0-.67,.06-1.4,.19-2.21Zm2.71,5.95c.43,.84,1.17,1.26,2.22,1.26,.65,0,1.23-.18,1.75-.55,.52-.37,.97-.83,1.35-1.4,.38-.57,.7-1.2,.96-1.89,.26-.69,.47-1.37,.62-2.03,.16-.66,.28-1.26,.35-1.8,.08-.54,.11-.94,.11-1.19,0-.33,0-.7,.01-1.09,0-.39,0-.79-.02-1.19-.03-.4-.08-.79-.17-1.18-.09-.38-.24-.72-.44-1.01-.2-.29-.47-.53-.8-.7-.33-.17-.76-.26-1.27-.26-.63,0-1.21,.18-1.73,.54-.52,.36-.97,.83-1.36,1.4-.39,.58-.73,1.22-1.01,1.94s-.52,1.43-.7,2.15c-.18,.72-.32,1.39-.4,2.03-.08,.63-.12,1.16-.12,1.57,0,1.42,.22,2.55,.65,3.39Z"/>
    <path class="cls-2" d="M809.8,174.88c.12-.81,.32-1.62,.59-2.45,.27-.83,.61-1.63,1.02-2.41,.42-.78,.91-1.48,1.48-2.08,.57-.6,1.22-1.08,1.97-1.45,.75-.37,1.58-.55,2.5-.55,1.55,0,2.73,.53,3.55,1.58s1.23,2.76,1.23,5.12c0,.55-.05,1.21-.16,1.98-.11,.77-.28,1.57-.51,2.41s-.55,1.67-.94,2.5c-.39,.82-.87,1.56-1.44,2.21-.57,.65-1.22,1.18-1.97,1.59s-1.62,.61-2.6,.61-1.71-.17-2.34-.53c-.62-.35-1.13-.83-1.51-1.45s-.65-1.34-.81-2.18c-.16-.83-.24-1.73-.24-2.7,0-.67,.06-1.4,.19-2.21Zm2.71,5.95c.43,.84,1.17,1.26,2.22,1.26,.65,0,1.23-.18,1.75-.55,.52-.37,.97-.83,1.35-1.4,.38-.57,.7-1.2,.96-1.89,.26-.69,.47-1.37,.62-2.03,.16-.66,.28-1.26,.35-1.8,.08-.54,.11-.94,.11-1.19,0-.33,0-.7,.01-1.09,0-.39,0-.79-.02-1.19-.03-.4-.08-.79-.17-1.18-.09-.38-.24-.72-.44-1.01-.2-.29-.47-.53-.8-.7-.33-.17-.76-.26-1.27-.26-.63,0-1.21,.18-1.73,.54-.52,.36-.97,.83-1.36,1.4-.39,.58-.73,1.22-1.01,1.94s-.52,1.43-.7,2.15c-.18,.72-.32,1.39-.4,2.03-.08,.63-.12,1.16-.12,1.57,0,1.42,.22,2.55,.65,3.39Z"/>
    <path class="cls-2" d="M823.7,174.88c.12-.81,.32-1.62,.59-2.45,.27-.83,.61-1.63,1.02-2.41,.42-.78,.91-1.48,1.48-2.08,.57-.6,1.22-1.08,1.97-1.45,.75-.37,1.58-.55,2.5-.55,1.55,0,2.73,.53,3.55,1.58s1.23,2.76,1.23,5.12c0,.55-.05,1.21-.16,1.98-.11,.77-.28,1.57-.51,2.41s-.55,1.67-.94,2.5c-.39,.82-.87,1.56-1.44,2.21-.57,.65-1.22,1.18-1.97,1.59s-1.62,.61-2.6,.61-1.71-.17-2.34-.53c-.62-.35-1.13-.83-1.51-1.45s-.65-1.34-.81-2.18c-.16-.83-.24-1.73-.24-2.7,0-.67,.06-1.4,.19-2.21Zm2.71,5.95c.43,.84,1.17,1.26,2.22,1.26,.65,0,1.23-.18,1.75-.55,.52-.37,.97-.83,1.35-1.4,.38-.57,.7-1.2,.96-1.89,.26-.69,.47-1.37,.62-2.03,.16-.66,.28-1.26,.35-1.8,.08-.54,.11-.94,.11-1.19,0-.33,0-.7,.01-1.09,0-.39,0-.79-.02-1.19-.03-.4-.08-.79-.17-1.18-.09-.38-.24-.72-.44-1.01-.2-.29-.47-.53-.8-.7-.33-.17-.76-.26-1.27-.26-.63,0-1.21,.18-1.73,.54-.52,.36-.97,.83-1.36,1.4-.39,.58-.73,1.22-1.01,1.94s-.52,1.43-.7,2.15c-.18,.72-.32,1.39-.4,2.03-.08,.63-.12,1.16-.12,1.57,0,1.42,.22,2.55,.65,3.39Z"/>
  </g>
  <g>
    <path class="cls-2" d="M914.11,169.47c.32-.74,.74-1.38,1.27-1.9s1.18-.93,1.93-1.21,1.6-.43,2.55-.43c.71,0,1.38,.11,1.99,.33,.61,.22,1.13,.53,1.58,.94,.44,.41,.79,.9,1.04,1.49,.25,.58,.38,1.24,.38,1.97s-.12,1.37-.38,1.96-.58,1.13-.99,1.62c-.41,.49-.88,.94-1.41,1.35-.53,.41-1.09,.79-1.68,1.15-.58,.36-1.17,.7-1.75,1.03-.58,.32-1.12,.65-1.62,.96-.28,.18-.57,.38-.86,.6-.29,.22-.57,.45-.83,.71-.26,.26-.5,.53-.71,.82-.22,.29-.38,.6-.5,.91h9.22l-.4,1.88h-11.28c.07-.9,.25-1.69,.54-2.36,.29-.68,.66-1.28,1.1-1.81,.44-.53,.95-1.01,1.51-1.43,.57-.42,1.16-.82,1.78-1.2,.62-.38,1.24-.76,1.88-1.12,.63-.37,1.24-.77,1.82-1.2,.32-.25,.62-.5,.9-.76s.53-.53,.74-.83c.21-.29,.37-.61,.49-.96,.12-.35,.18-.75,.18-1.2,0-.95-.27-1.68-.8-2.2s-1.26-.78-2.17-.78c-.6,0-1.13,.11-1.6,.34s-.86,.53-1.19,.9c-.32,.38-.58,.82-.76,1.32-.18,.51-.29,1.04-.32,1.59h-2.25c.1-.92,.31-1.75,.62-2.49Z"/>
    <path class="cls-2" d="M931.11,168.11l-1.4,4.8,.05,.05c.43-.33,.92-.58,1.47-.74,.55-.16,1.1-.24,1.65-.24,.8,0,1.51,.14,2.12,.41,.62,.28,1.14,.65,1.56,1.12,.42,.47,.74,1.04,.96,1.7,.22,.66,.33,1.36,.33,2.11,0,.95-.16,1.85-.47,2.71-.32,.86-.83,1.6-1.53,2.24-.7,.6-1.43,1.03-2.18,1.28s-1.58,.38-2.5,.38c-1.62,0-2.91-.43-3.88-1.3s-1.45-2.11-1.45-3.73h2.25c0,2.12,1.07,3.18,3.2,3.18,.7,0,1.32-.12,1.85-.36,.53-.24,.98-.57,1.34-1,.36-.42,.63-.92,.83-1.49,.19-.57,.29-1.17,.29-1.8,0-1.15-.3-2.03-.9-2.65-.6-.62-1.47-.92-2.62-.92-.63,0-1.24,.15-1.82,.46-.58,.31-1.03,.73-1.33,1.26h-1.9l2.75-9.35h8.98l-.38,1.88h-7.28Z"/>
    <path class="cls-2" d="M940.39,174.88c.12-.81,.32-1.62,.59-2.45,.27-.83,.61-1.63,1.02-2.41,.42-.78,.91-1.48,1.48-2.08,.57-.6,1.22-1.08,1.97-1.45,.75-.37,1.58-.55,2.5-.55,1.55,0,2.73,.53,3.55,1.58s1.23,2.76,1.23,5.12c0,.55-.05,1.21-.16,1.98-.11,.77-.28,1.57-.51,2.41-.23,.84-.55,1.67-.94,2.5-.39,.82-.87,1.56-1.44,2.21-.57,.65-1.22,1.18-1.97,1.59s-1.62,.61-2.6,.61-1.71-.17-2.34-.53c-.62-.35-1.13-.83-1.51-1.45-.38-.62-.65-1.34-.81-2.18-.16-.83-.24-1.73-.24-2.7,0-.67,.06-1.4,.19-2.21Zm2.71,5.95c.43,.84,1.17,1.26,2.22,1.26,.65,0,1.23-.18,1.75-.55,.52-.37,.97-.83,1.35-1.4,.38-.57,.7-1.2,.96-1.89,.26-.69,.47-1.37,.62-2.03,.16-.66,.28-1.26,.35-1.8,.07-.54,.11-.94,.11-1.19,0-.33,0-.7,.01-1.09s0-.79-.03-1.19-.08-.79-.17-1.18c-.09-.38-.24-.72-.44-1.01-.2-.29-.47-.53-.8-.7s-.76-.26-1.28-.26c-.63,0-1.21,.18-1.72,.54-.52,.36-.97,.83-1.36,1.4-.39,.58-.73,1.22-1.01,1.94s-.52,1.43-.7,2.15c-.18,.72-.32,1.39-.4,2.03-.08,.63-.12,1.16-.12,1.57,0,1.42,.22,2.55,.65,3.39Z"/>
    <path class="cls-2" d="M954.29,174.88c.12-.81,.32-1.62,.59-2.45,.27-.83,.61-1.63,1.02-2.41,.42-.78,.91-1.48,1.48-2.08,.57-.6,1.22-1.08,1.97-1.45,.75-.37,1.58-.55,2.5-.55,1.55,0,2.73,.53,3.55,1.58s1.23,2.76,1.23,5.12c0,.55-.05,1.21-.16,1.98-.11,.77-.28,1.57-.51,2.41-.23,.84-.55,1.67-.94,2.5-.39,.82-.87,1.56-1.44,2.21-.57,.65-1.22,1.18-1.97,1.59s-1.62,.61-2.6,.61-1.71-.17-2.34-.53c-.62-.35-1.13-.83-1.51-1.45-.38-.62-.65-1.34-.81-2.18-.16-.83-.24-1.73-.24-2.7,0-.67,.06-1.4,.19-2.21Zm2.71,5.95c.43,.84,1.17,1.26,2.22,1.26,.65,0,1.23-.18,1.75-.55,.52-.37,.97-.83,1.35-1.4,.38-.57,.7-1.2,.96-1.89,.26-.69,.47-1.37,.62-2.03,.16-.66,.28-1.26,.35-1.8,.07-.54,.11-.94,.11-1.19,0-.33,0-.7,.01-1.09s0-.79-.03-1.19-.08-.79-.17-1.18c-.09-.38-.24-.72-.44-1.01-.2-.29-.47-.53-.8-.7s-.76-.26-1.28-.26c-.63,0-1.21,.18-1.72,.54-.52,.36-.97,.83-1.36,1.4-.39,.58-.73,1.22-1.01,1.94s-.52,1.43-.7,2.15c-.18,.72-.32,1.39-.4,2.03-.08,.63-.12,1.16-.12,1.57,0,1.42,.22,2.55,.65,3.39Z"/>
    <path class="cls-2" d="M968.19,174.88c.12-.81,.32-1.62,.59-2.45,.27-.83,.61-1.63,1.03-2.41,.42-.78,.91-1.48,1.47-2.08s1.22-1.08,1.97-1.45c.75-.37,1.58-.55,2.5-.55,1.55,0,2.73,.53,3.55,1.58s1.22,2.76,1.22,5.12c0,.55-.05,1.21-.16,1.98-.11,.77-.28,1.57-.51,2.41-.23,.84-.54,1.67-.94,2.5-.39,.82-.87,1.56-1.44,2.21-.57,.65-1.22,1.18-1.97,1.59s-1.62,.61-2.6,.61-1.71-.17-2.34-.53c-.62-.35-1.13-.83-1.51-1.45-.38-.62-.65-1.34-.81-2.18-.16-.83-.24-1.73-.24-2.7,0-.67,.06-1.4,.19-2.21Zm2.71,5.95c.43,.84,1.18,1.26,2.22,1.26,.65,0,1.23-.18,1.75-.55,.52-.37,.97-.83,1.35-1.4,.38-.57,.71-1.2,.96-1.89s.47-1.37,.62-2.03c.16-.66,.28-1.26,.35-1.8,.08-.54,.11-.94,.11-1.19,0-.33,0-.7,.01-1.09,0-.39,0-.79-.02-1.19-.03-.4-.08-.79-.18-1.18-.09-.38-.24-.72-.44-1.01s-.47-.53-.8-.7c-.33-.17-.76-.26-1.27-.26-.63,0-1.21,.18-1.73,.54-.52,.36-.97,.83-1.36,1.4-.39,.58-.73,1.22-1.01,1.94s-.52,1.43-.7,2.15-.32,1.39-.4,2.03c-.08,.63-.12,1.16-.12,1.57,0,1.42,.22,2.55,.65,3.39Z"/>
    <path class="cls-2" d="M982.09,174.88c.12-.81,.32-1.62,.59-2.45,.27-.83,.61-1.63,1.03-2.41,.42-.78,.91-1.48,1.47-2.08s1.22-1.08,1.97-1.45c.75-.37,1.58-.55,2.5-.55,1.55,0,2.73,.53,3.55,1.58s1.22,2.76,1.22,5.12c0,.55-.05,1.21-.16,1.98-.11,.77-.28,1.57-.51,2.41-.23,.84-.54,1.67-.94,2.5-.39,.82-.87,1.56-1.44,2.21-.57,.65-1.22,1.18-1.97,1.59s-1.62,.61-2.6,.61-1.71-.17-2.34-.53c-.62-.35-1.13-.83-1.51-1.45-.38-.62-.65-1.34-.81-2.18-.16-.83-.24-1.73-.24-2.7,0-.67,.06-1.4,.19-2.21Zm2.71,5.95c.43,.84,1.18,1.26,2.22,1.26,.65,0,1.23-.18,1.75-.55,.52-.37,.97-.83,1.35-1.4,.38-.57,.71-1.2,.96-1.89s.47-1.37,.62-2.03c.16-.66,.28-1.26,.35-1.8,.08-.54,.11-.94,.11-1.19,0-.33,0-.7,.01-1.09,0-.39,0-.79-.02-1.19-.03-.4-.08-.79-.18-1.18-.09-.38-.24-.72-.44-1.01s-.47-.53-.8-.7c-.33-.17-.76-.26-1.27-.26-.63,0-1.21,.18-1.73,.54-.52,.36-.97,.83-1.36,1.4-.39,.58-.73,1.22-1.01,1.94s-.52,1.43-.7,2.15-.32,1.39-.4,2.03c-.08,.63-.12,1.16-.12,1.57,0,1.42,.22,2.55,.65,3.39Z"/>
  </g>
  <g>
    <path class="cls-2" d="M1077.55,173.53c.58-.06,1.1-.2,1.58-.43,.47-.22,.86-.56,1.16-1.01,.3-.45,.45-1.06,.45-1.83,0-.53-.09-.96-.26-1.27s-.4-.56-.69-.74c-.28-.17-.6-.29-.96-.35-.36-.06-.72-.09-1.09-.09-1,0-1.81,.29-2.44,.86-.62,.57-1.01,1.49-1.16,2.74h-2.25c.1-.73,.29-1.43,.57-2.09,.28-.66,.67-1.24,1.15-1.74s1.08-.9,1.78-1.2c.7-.3,1.52-.45,2.47-.45,1.57,0,2.81,.36,3.74,1.09s1.39,1.84,1.39,3.34c0,.52-.09,1-.28,1.44s-.42,.84-.71,1.19c-.29,.35-.63,.65-1.01,.89-.38,.24-.78,.42-1.17,.54,.87,.38,1.47,.89,1.8,1.53,.33,.63,.5,1.35,.5,2.15,0,.62-.13,1.27-.39,1.96s-.65,1.32-1.17,1.9-1.19,1.05-1.99,1.42-1.75,.56-2.85,.56c-1.75,0-3.12-.46-4.11-1.39-.99-.93-1.48-2.38-1.46-4.36h2.25c-.02,.48,.02,.96,.1,1.43,.08,.47,.25,.88,.5,1.25,.25,.37,.6,.66,1.05,.89s1.03,.34,1.73,.34c.6,0,1.15-.09,1.65-.28s.93-.44,1.29-.78c.36-.33,.64-.74,.85-1.22,.21-.48,.31-1.03,.31-1.62,0-.68-.13-1.22-.39-1.6s-.6-.68-1.01-.88c-.42-.2-.89-.33-1.41-.38-.53-.05-1.05-.08-1.59-.08l.38-1.7c.57,.03,1.14,.02,1.71-.04Z"/>
    <path class="cls-2" d="M1084.82,174.88c.12-.81,.32-1.62,.59-2.45,.27-.83,.61-1.63,1.02-2.41,.42-.78,.91-1.48,1.48-2.08,.57-.6,1.22-1.08,1.97-1.45,.75-.37,1.58-.55,2.5-.55,1.55,0,2.73,.53,3.55,1.58s1.23,2.76,1.23,5.12c0,.55-.05,1.21-.16,1.98-.11,.77-.28,1.57-.51,2.41s-.55,1.67-.94,2.5c-.39,.82-.87,1.56-1.44,2.21-.57,.65-1.22,1.18-1.97,1.59s-1.62,.61-2.6,.61-1.71-.17-2.34-.53c-.62-.35-1.13-.83-1.51-1.45s-.65-1.34-.81-2.18c-.16-.83-.24-1.73-.24-2.7,0-.67,.06-1.4,.19-2.21Zm2.71,5.95c.43,.84,1.17,1.26,2.22,1.26,.65,0,1.23-.18,1.75-.55,.52-.37,.97-.83,1.35-1.4,.38-.57,.7-1.2,.96-1.89,.26-.69,.47-1.37,.62-2.03,.16-.66,.28-1.26,.35-1.8,.08-.54,.11-.94,.11-1.19,0-.33,0-.7,.01-1.09,0-.39,0-.79-.02-1.19-.03-.4-.08-.79-.17-1.18-.09-.38-.24-.72-.44-1.01-.2-.29-.47-.53-.8-.7-.33-.17-.76-.26-1.27-.26-.63,0-1.21,.18-1.73,.54-.52,.36-.97,.83-1.36,1.4-.39,.58-.73,1.22-1.01,1.94s-.52,1.43-.7,2.15c-.18,.72-.32,1.39-.4,2.03-.08,.63-.12,1.16-.12,1.57,0,1.42,.22,2.55,.65,3.39Z"/>
    <path class="cls-2" d="M1098.72,174.88c.12-.81,.32-1.62,.59-2.45,.27-.83,.61-1.63,1.02-2.41,.42-.78,.91-1.48,1.48-2.08,.57-.6,1.22-1.08,1.97-1.45,.75-.37,1.58-.55,2.5-.55,1.55,0,2.73,.53,3.55,1.58s1.23,2.76,1.23,5.12c0,.55-.05,1.21-.16,1.98-.11,.77-.28,1.57-.51,2.41s-.55,1.67-.94,2.5c-.39,.82-.87,1.56-1.44,2.21-.57,.65-1.22,1.18-1.97,1.59s-1.62,.61-2.6,.61-1.71-.17-2.34-.53c-.62-.35-1.13-.83-1.51-1.45s-.65-1.34-.81-2.18c-.16-.83-.24-1.73-.24-2.7,0-.67,.06-1.4,.19-2.21Zm2.71,5.95c.43,.84,1.17,1.26,2.22,1.26,.65,0,1.23-.18,1.75-.55,.52-.37,.97-.83,1.35-1.4,.38-.57,.7-1.2,.96-1.89,.26-.69,.47-1.37,.62-2.03,.16-.66,.28-1.26,.35-1.8,.08-.54,.11-.94,.11-1.19,0-.33,0-.7,.01-1.09,0-.39,0-.79-.02-1.19-.03-.4-.08-.79-.17-1.18-.09-.38-.24-.72-.44-1.01-.2-.29-.47-.53-.8-.7-.33-.17-.76-.26-1.27-.26-.63,0-1.21,.18-1.73,.54-.52,.36-.97,.83-1.36,1.4-.39,.58-.73,1.22-1.01,1.94s-.52,1.43-.7,2.15c-.18,.72-.32,1.39-.4,2.03-.08,.63-.12,1.16-.12,1.57,0,1.42,.22,2.55,.65,3.39Z"/>
    <path class="cls-2" d="M1112.62,174.88c.12-.81,.32-1.62,.59-2.45,.27-.83,.61-1.63,1.02-2.41,.42-.78,.91-1.48,1.48-2.08,.57-.6,1.22-1.08,1.97-1.45,.75-.37,1.58-.55,2.5-.55,1.55,0,2.73,.53,3.55,1.58s1.23,2.76,1.23,5.12c0,.55-.05,1.21-.16,1.98-.11,.77-.28,1.57-.51,2.41s-.55,1.67-.94,2.5c-.39,.82-.87,1.56-1.44,2.21-.57,.65-1.22,1.18-1.97,1.59s-1.62,.61-2.6,.61-1.71-.17-2.34-.53c-.62-.35-1.13-.83-1.51-1.45s-.65-1.34-.81-2.18c-.16-.83-.24-1.73-.24-2.7,0-.67,.06-1.4,.19-2.21Zm2.71,5.95c.43,.84,1.17,1.26,2.22,1.26,.65,0,1.23-.18,1.75-.55,.52-.37,.97-.83,1.35-1.4,.38-.57,.7-1.2,.96-1.89,.26-.69,.47-1.37,.62-2.03,.16-.66,.28-1.26,.35-1.8,.08-.54,.11-.94,.11-1.19,0-.33,0-.7,.01-1.09,0-.39,0-.79-.02-1.19-.03-.4-.08-.79-.17-1.18-.09-.38-.24-.72-.44-1.01-.2-.29-.47-.53-.8-.7-.33-.17-.76-.26-1.27-.26-.63,0-1.21,.18-1.73,.54-.52,.36-.97,.83-1.36,1.4-.39,.58-.73,1.22-1.01,1.94s-.52,1.43-.7,2.15c-.18,.72-.32,1.39-.4,2.03-.08,.63-.12,1.16-.12,1.57,0,1.42,.22,2.55,.65,3.39Z"/>
    <path class="cls-2" d="M1126.52,174.88c.12-.81,.32-1.62,.59-2.45,.27-.83,.61-1.63,1.02-2.41,.42-.78,.91-1.48,1.48-2.08,.57-.6,1.22-1.08,1.97-1.45,.75-.37,1.58-.55,2.5-.55,1.55,0,2.73,.53,3.55,1.58s1.23,2.76,1.23,5.12c0,.55-.05,1.21-.16,1.98-.11,.77-.28,1.57-.51,2.41s-.55,1.67-.94,2.5c-.39,.82-.87,1.56-1.44,2.21-.57,.65-1.22,1.18-1.97,1.59s-1.62,.61-2.6,.61-1.71-.17-2.34-.53c-.62-.35-1.13-.83-1.51-1.45s-.65-1.34-.81-2.18c-.16-.83-.24-1.73-.24-2.7,0-.67,.06-1.4,.19-2.21Zm2.71,5.95c.43,.84,1.17,1.26,2.22,1.26,.65,0,1.23-.18,1.75-.55,.52-.37,.97-.83,1.35-1.4,.38-.57,.7-1.2,.96-1.89,.26-.69,.47-1.37,.62-2.03,.16-.66,.28-1.26,.35-1.8,.08-.54,.11-.94,.11-1.19,0-.33,0-.7,.01-1.09,0-.39,0-.79-.02-1.19-.03-.4-.08-.79-.17-1.18-.09-.38-.24-.72-.44-1.01-.2-.29-.47-.53-.8-.7-.33-.17-.76-.26-1.27-.26-.63,0-1.21,.18-1.73,.54-.52,.36-.97,.83-1.36,1.4-.39,.58-.73,1.22-1.01,1.94s-.52,1.43-.7,2.15c-.18,.72-.32,1.39-.4,2.03-.08,.63-.12,1.16-.12,1.57,0,1.42,.22,2.55,.65,3.39Z"/>
    <path class="cls-2" d="M1140.42,174.88c.12-.81,.32-1.62,.59-2.45,.27-.83,.61-1.63,1.02-2.41,.42-.78,.91-1.48,1.48-2.08,.57-.6,1.22-1.08,1.97-1.45,.75-.37,1.58-.55,2.5-.55,1.55,0,2.73,.53,3.55,1.58s1.23,2.76,1.23,5.12c0,.55-.05,1.21-.16,1.98-.11,.77-.28,1.57-.51,2.41s-.55,1.67-.94,2.5c-.39,.82-.87,1.56-1.44,2.21-.57,.65-1.22,1.18-1.97,1.59s-1.62,.61-2.6,.61-1.71-.17-2.34-.53c-.62-.35-1.13-.83-1.51-1.45s-.65-1.34-.81-2.18c-.16-.83-.24-1.73-.24-2.7,0-.67,.06-1.4,.19-2.21Zm2.71,5.95c.43,.84,1.17,1.26,2.22,1.26,.65,0,1.23-.18,1.75-.55,.52-.37,.97-.83,1.35-1.4,.38-.57,.7-1.2,.96-1.89,.26-.69,.47-1.37,.62-2.03,.16-.66,.28-1.26,.35-1.8,.08-.54,.11-.94,.11-1.19,0-.33,0-.7,.01-1.09,0-.39,0-.79-.02-1.19-.03-.4-.08-.79-.17-1.18-.09-.38-.24-.72-.44-1.01-.2-.29-.47-.53-.8-.7-.33-.17-.76-.26-1.27-.26-.63,0-1.21,.18-1.73,.54-.52,.36-.97,.83-1.36,1.4-.39,.58-.73,1.22-1.01,1.94s-.52,1.43-.7,2.15c-.18,.72-.32,1.39-.4,2.03-.08,.63-.12,1.16-.12,1.57,0,1.42,.22,2.55,.65,3.39Z"/>
  </g>
  <g>
    <path class="cls-2" d="M599.74,183.66l2.88-13.47c-.8,.18-1.56,.31-2.27,.39-.72,.08-1.48,.11-2.3,.11l.35-1.7c.55,0,1.1-.06,1.66-.19s1.1-.32,1.61-.58c.52-.26,.99-.58,1.41-.96s.77-.83,1.04-1.33h1.65l-3.78,17.72h-2.25Z"/>
    <path class="cls-2" d="M614.26,168.11l-1.4,4.8,.05,.05c.43-.33,.92-.58,1.47-.74,.55-.16,1.1-.24,1.65-.24,.8,0,1.51,.14,2.12,.41,.62,.28,1.14,.65,1.56,1.12s.75,1.04,.96,1.7c.22,.66,.33,1.36,.33,2.11,0,.95-.16,1.85-.47,2.71-.32,.86-.83,1.6-1.53,2.24-.7,.6-1.42,1.03-2.17,1.28s-1.58,.38-2.5,.38c-1.62,0-2.91-.43-3.88-1.3s-1.45-2.11-1.45-3.73h2.25c0,2.12,1.07,3.18,3.2,3.18,.7,0,1.32-.12,1.85-.36,.53-.24,.98-.57,1.34-1,.36-.42,.63-.92,.83-1.49,.19-.57,.29-1.17,.29-1.8,0-1.15-.3-2.03-.9-2.65-.6-.62-1.48-.92-2.62-.92-.63,0-1.24,.15-1.83,.46-.58,.31-1.03,.73-1.33,1.26h-1.9l2.75-9.35h8.98l-.38,1.88h-7.28Z"/>
    <path class="cls-2" d="M623.55,174.88c.12-.81,.32-1.62,.59-2.45,.27-.83,.61-1.63,1.02-2.41,.42-.78,.91-1.48,1.48-2.08,.57-.6,1.22-1.08,1.97-1.45,.75-.37,1.58-.55,2.5-.55,1.55,0,2.73,.53,3.55,1.58s1.23,2.76,1.23,5.12c0,.55-.05,1.21-.16,1.98-.11,.77-.28,1.57-.51,2.41s-.55,1.67-.94,2.5c-.39,.82-.87,1.56-1.44,2.21-.57,.65-1.22,1.18-1.97,1.59s-1.62,.61-2.6,.61-1.71-.17-2.34-.53c-.62-.35-1.13-.83-1.51-1.45s-.65-1.34-.81-2.18c-.16-.83-.24-1.73-.24-2.7,0-.67,.06-1.4,.19-2.21Zm2.71,5.95c.43,.84,1.17,1.26,2.22,1.26,.65,0,1.23-.18,1.75-.55,.52-.37,.97-.83,1.35-1.4,.38-.57,.7-1.2,.96-1.89,.26-.69,.47-1.37,.62-2.03,.16-.66,.28-1.26,.35-1.8,.08-.54,.11-.94,.11-1.19,0-.33,0-.7,.01-1.09,0-.39,0-.79-.02-1.19-.03-.4-.08-.79-.17-1.18-.09-.38-.24-.72-.44-1.01-.2-.29-.47-.53-.8-.7-.33-.17-.76-.26-1.27-.26-.63,0-1.21,.18-1.73,.54-.52,.36-.97,.83-1.36,1.4-.39,.58-.73,1.22-1.01,1.94s-.52,1.43-.7,2.15c-.18,.72-.32,1.39-.4,2.03-.08,.63-.12,1.16-.12,1.57,0,1.42,.22,2.55,.65,3.39Z"/>
    <path class="cls-2" d="M637.45,174.88c.12-.81,.32-1.62,.59-2.45,.27-.83,.61-1.63,1.02-2.41,.42-.78,.91-1.48,1.48-2.08,.57-.6,1.22-1.08,1.97-1.45,.75-.37,1.58-.55,2.5-.55,1.55,0,2.73,.53,3.55,1.58s1.23,2.76,1.23,5.12c0,.55-.05,1.21-.16,1.98-.11,.77-.28,1.57-.51,2.41s-.55,1.67-.94,2.5c-.39,.82-.87,1.56-1.44,2.21-.57,.65-1.22,1.18-1.97,1.59s-1.62,.61-2.6,.61-1.71-.17-2.34-.53c-.62-.35-1.13-.83-1.51-1.45s-.65-1.34-.81-2.18c-.16-.83-.24-1.73-.24-2.7,0-.67,.06-1.4,.19-2.21Zm2.71,5.95c.43,.84,1.17,1.26,2.22,1.26,.65,0,1.23-.18,1.75-.55,.52-.37,.97-.83,1.35-1.4,.38-.57,.7-1.2,.96-1.89,.26-.69,.47-1.37,.62-2.03,.16-.66,.28-1.26,.35-1.8,.08-.54,.11-.94,.11-1.19,0-.33,0-.7,.01-1.09,0-.39,0-.79-.02-1.19-.03-.4-.08-.79-.17-1.18-.09-.38-.24-.72-.44-1.01-.2-.29-.47-.53-.8-.7-.33-.17-.76-.26-1.27-.26-.63,0-1.21,.18-1.73,.54-.52,.36-.97,.83-1.36,1.4-.39,.58-.73,1.22-1.01,1.94s-.52,1.43-.7,2.15c-.18,.72-.32,1.39-.4,2.03-.08,.63-.12,1.16-.12,1.57,0,1.42,.22,2.55,.65,3.39Z"/>
    <path class="cls-2" d="M651.35,174.88c.12-.81,.32-1.62,.59-2.45,.27-.83,.61-1.63,1.02-2.41,.42-.78,.91-1.48,1.48-2.08,.57-.6,1.22-1.08,1.97-1.45,.75-.37,1.58-.55,2.5-.55,1.55,0,2.73,.53,3.55,1.58s1.23,2.76,1.23,5.12c0,.55-.05,1.21-.16,1.98-.11,.77-.28,1.57-.51,2.41s-.55,1.67-.94,2.5c-.39,.82-.87,1.56-1.44,2.21-.57,.65-1.22,1.18-1.97,1.59s-1.62,.61-2.6,.61-1.71-.17-2.34-.53c-.62-.35-1.13-.83-1.51-1.45s-.65-1.34-.81-2.18c-.16-.83-.24-1.73-.24-2.7,0-.67,.06-1.4,.19-2.21Zm2.71,5.95c.43,.84,1.17,1.26,2.22,1.26,.65,0,1.23-.18,1.75-.55,.52-.37,.97-.83,1.35-1.4,.38-.57,.7-1.2,.96-1.89,.26-.69,.47-1.37,.62-2.03,.16-.66,.28-1.26,.35-1.8,.08-.54,.11-.94,.11-1.19,0-.33,0-.7,.01-1.09,0-.39,0-.79-.02-1.19-.03-.4-.08-.79-.17-1.18-.09-.38-.24-.72-.44-1.01-.2-.29-.47-.53-.8-.7-.33-.17-.76-.26-1.27-.26-.63,0-1.21,.18-1.73,.54-.52,.36-.97,.83-1.36,1.4-.39,.58-.73,1.22-1.01,1.94s-.52,1.43-.7,2.15c-.18,.72-.32,1.39-.4,2.03-.08,.63-.12,1.16-.12,1.57,0,1.42,.22,2.55,.65,3.39Z"/>
    <path class="cls-2" d="M665.25,174.88c.12-.81,.32-1.62,.59-2.45,.27-.83,.61-1.63,1.02-2.41,.42-.78,.91-1.48,1.48-2.08,.57-.6,1.22-1.08,1.97-1.45,.75-.37,1.58-.55,2.5-.55,1.55,0,2.73,.53,3.55,1.58s1.23,2.76,1.23,5.12c0,.55-.05,1.21-.16,1.98-.11,.77-.28,1.57-.51,2.41s-.55,1.67-.94,2.5c-.39,.82-.87,1.56-1.44,2.21-.57,.65-1.22,1.18-1.97,1.59s-1.62,.61-2.6,.61-1.71-.17-2.34-.53c-.62-.35-1.13-.83-1.51-1.45s-.65-1.34-.81-2.18c-.16-.83-.24-1.73-.24-2.7,0-.67,.06-1.4,.19-2.21Zm2.71,5.95c.43,.84,1.17,1.26,2.22,1.26,.65,0,1.23-.18,1.75-.55,.52-.37,.97-.83,1.35-1.4,.38-.57,.7-1.2,.96-1.89,.26-.69,.47-1.37,.62-2.03,.16-.66,.28-1.26,.35-1.8,.08-.54,.11-.94,.11-1.19,0-.33,0-.7,.01-1.09,0-.39,0-.79-.02-1.19-.03-.4-.08-.79-.17-1.18-.09-.38-.24-.72-.44-1.01-.2-.29-.47-.53-.8-.7-.33-.17-.76-.26-1.27-.26-.63,0-1.21,.18-1.73,.54-.52,.36-.97,.83-1.36,1.4-.39,.58-.73,1.22-1.01,1.94s-.52,1.43-.7,2.15c-.18,.72-.32,1.39-.4,2.03-.08,.63-.12,1.16-.12,1.57,0,1.42,.22,2.55,.65,3.39Z"/>
  </g>
  <g>
    <path class="cls-2" d="M441.35,183.66l2.88-13.47c-.8,.18-1.56,.31-2.27,.39-.72,.08-1.48,.11-2.3,.11l.35-1.7c.55,0,1.1-.06,1.66-.19s1.1-.32,1.61-.58c.52-.26,.99-.58,1.41-.96s.77-.83,1.04-1.33h1.65l-3.78,17.72h-2.25Z"/>
    <path class="cls-2" d="M451.26,174.88c.12-.81,.32-1.62,.59-2.45,.27-.83,.61-1.63,1.02-2.41,.42-.78,.91-1.48,1.48-2.08,.57-.6,1.22-1.08,1.97-1.45,.75-.37,1.58-.55,2.5-.55,1.55,0,2.73,.53,3.55,1.58s1.23,2.76,1.23,5.12c0,.55-.05,1.21-.16,1.98-.11,.77-.28,1.57-.51,2.41s-.55,1.67-.94,2.5c-.39,.82-.87,1.56-1.44,2.21-.57,.65-1.22,1.18-1.97,1.59s-1.62,.61-2.6,.61-1.71-.17-2.34-.53c-.62-.35-1.13-.83-1.51-1.45s-.65-1.34-.81-2.18c-.16-.83-.24-1.73-.24-2.7,0-.67,.06-1.4,.19-2.21Zm2.71,5.95c.43,.84,1.17,1.26,2.22,1.26,.65,0,1.23-.18,1.75-.55,.52-.37,.97-.83,1.35-1.4,.38-.57,.7-1.2,.96-1.89,.26-.69,.47-1.37,.62-2.03,.16-.66,.28-1.26,.35-1.8,.08-.54,.11-.94,.11-1.19,0-.33,0-.7,.01-1.09,0-.39,0-.79-.02-1.19-.03-.4-.08-.79-.17-1.18-.09-.38-.24-.72-.44-1.01-.2-.29-.47-.53-.8-.7-.33-.17-.76-.26-1.27-.26-.63,0-1.21,.18-1.73,.54-.52,.36-.97,.83-1.36,1.4-.39,.58-.73,1.22-1.01,1.94s-.52,1.43-.7,2.15c-.18,.72-.32,1.39-.4,2.03-.08,.63-.12,1.16-.12,1.57,0,1.42,.22,2.55,.65,3.39Z"/>
    <path class="cls-2" d="M465.16,174.88c.12-.81,.32-1.62,.59-2.45,.27-.83,.61-1.63,1.02-2.41,.42-.78,.91-1.48,1.48-2.08,.57-.6,1.22-1.08,1.97-1.45,.75-.37,1.58-.55,2.5-.55,1.55,0,2.73,.53,3.55,1.58s1.23,2.76,1.23,5.12c0,.55-.05,1.21-.16,1.98-.11,.77-.28,1.57-.51,2.41s-.55,1.67-.94,2.5c-.39,.82-.87,1.56-1.44,2.21-.57,.65-1.22,1.18-1.97,1.59s-1.62,.61-2.6,.61-1.71-.17-2.34-.53c-.62-.35-1.13-.83-1.51-1.45s-.65-1.34-.81-2.18c-.16-.83-.24-1.73-.24-2.7,0-.67,.06-1.4,.19-2.21Zm2.71,5.95c.43,.84,1.17,1.26,2.22,1.26,.65,0,1.23-.18,1.75-.55,.52-.37,.97-.83,1.35-1.4,.38-.57,.7-1.2,.96-1.89,.26-.69,.47-1.37,.62-2.03,.16-.66,.28-1.26,.35-1.8,.08-.54,.11-.94,.11-1.19,0-.33,0-.7,.01-1.09,0-.39,0-.79-.02-1.19-.03-.4-.08-.79-.17-1.18-.09-.38-.24-.72-.44-1.01-.2-.29-.47-.53-.8-.7-.33-.17-.76-.26-1.27-.26-.63,0-1.21,.18-1.73,.54-.52,.36-.97,.83-1.36,1.4-.39,.58-.73,1.22-1.01,1.94s-.52,1.43-.7,2.15c-.18,.72-.32,1.39-.4,2.03-.08,.63-.12,1.16-.12,1.57,0,1.42,.22,2.55,.65,3.39Z"/>
    <path class="cls-2" d="M479.06,174.88c.12-.81,.32-1.62,.59-2.45,.27-.83,.61-1.63,1.02-2.41,.42-.78,.91-1.48,1.48-2.08,.57-.6,1.22-1.08,1.97-1.45,.75-.37,1.58-.55,2.5-.55,1.55,0,2.73,.53,3.55,1.58s1.23,2.76,1.23,5.12c0,.55-.05,1.21-.16,1.98-.11,.77-.28,1.57-.51,2.41s-.55,1.67-.94,2.5c-.39,.82-.87,1.56-1.44,2.21-.57,.65-1.22,1.18-1.97,1.59s-1.62,.61-2.6,.61-1.71-.17-2.34-.53c-.62-.35-1.13-.83-1.51-1.45s-.65-1.34-.81-2.18c-.16-.83-.24-1.73-.24-2.7,0-.67,.06-1.4,.19-2.21Zm2.71,5.95c.43,.84,1.17,1.26,2.22,1.26,.65,0,1.23-.18,1.75-.55,.52-.37,.97-.83,1.35-1.4,.38-.57,.7-1.2,.96-1.89,.26-.69,.47-1.37,.62-2.03,.16-.66,.28-1.26,.35-1.8,.08-.54,.11-.94,.11-1.19,0-.33,0-.7,.01-1.09,0-.39,0-.79-.02-1.19-.03-.4-.08-.79-.17-1.18-.09-.38-.24-.72-.44-1.01-.2-.29-.47-.53-.8-.7-.33-.17-.76-.26-1.27-.26-.63,0-1.21,.18-1.73,.54-.52,.36-.97,.83-1.36,1.4-.39,.58-.73,1.22-1.01,1.94s-.52,1.43-.7,2.15c-.18,.72-.32,1.39-.4,2.03-.08,.63-.12,1.16-.12,1.57,0,1.42,.22,2.55,.65,3.39Z"/>
    <path class="cls-2" d="M492.96,174.88c.12-.81,.32-1.62,.59-2.45,.27-.83,.61-1.63,1.02-2.41,.42-.78,.91-1.48,1.48-2.08,.57-.6,1.22-1.08,1.97-1.45,.75-.37,1.58-.55,2.5-.55,1.55,0,2.73,.53,3.55,1.58s1.23,2.76,1.23,5.12c0,.55-.05,1.21-.16,1.98-.11,.77-.28,1.57-.51,2.41s-.55,1.67-.94,2.5c-.39,.82-.87,1.56-1.44,2.21-.57,.65-1.22,1.18-1.97,1.59s-1.62,.61-2.6,.61-1.71-.17-2.34-.53c-.62-.35-1.13-.83-1.51-1.45s-.65-1.34-.81-2.18c-.16-.83-.24-1.73-.24-2.7,0-.67,.06-1.4,.19-2.21Zm2.71,5.95c.43,.84,1.17,1.26,2.22,1.26,.65,0,1.23-.18,1.75-.55,.52-.37,.97-.83,1.35-1.4,.38-.57,.7-1.2,.96-1.89,.26-.69,.47-1.37,.62-2.03,.16-.66,.28-1.26,.35-1.8,.08-.54,.11-.94,.11-1.19,0-.33,0-.7,.01-1.09,0-.39,0-.79-.02-1.19-.03-.4-.08-.79-.17-1.18-.09-.38-.24-.72-.44-1.01-.2-.29-.47-.53-.8-.7-.33-.17-.76-.26-1.27-.26-.63,0-1.21,.18-1.73,.54-.52,.36-.97,.83-1.36,1.4-.39,.58-.73,1.22-1.01,1.94s-.52,1.43-.7,2.15c-.18,.72-.32,1.39-.4,2.03-.08,.63-.12,1.16-.12,1.57,0,1.42,.22,2.55,.65,3.39Z"/>
    <path class="cls-2" d="M506.86,174.88c.12-.81,.32-1.62,.59-2.45,.27-.83,.61-1.63,1.02-2.41,.42-.78,.91-1.48,1.48-2.08,.57-.6,1.22-1.08,1.97-1.45,.75-.37,1.58-.55,2.5-.55,1.55,0,2.73,.53,3.55,1.58s1.23,2.76,1.23,5.12c0,.55-.05,1.21-.16,1.98-.11,.77-.28,1.57-.51,2.41s-.55,1.67-.94,2.5c-.39,.82-.87,1.56-1.44,2.21-.57,.65-1.22,1.18-1.97,1.59s-1.62,.61-2.6,.61-1.71-.17-2.34-.53c-.62-.35-1.13-.83-1.51-1.45s-.65-1.34-.81-2.18c-.16-.83-.24-1.73-.24-2.7,0-.67,.06-1.4,.19-2.21Zm2.71,5.95c.43,.84,1.17,1.26,2.22,1.26,.65,0,1.23-.18,1.75-.55,.52-.37,.97-.83,1.35-1.4,.38-.57,.7-1.2,.96-1.89,.26-.69,.47-1.37,.62-2.03,.16-.66,.28-1.26,.35-1.8,.08-.54,.11-.94,.11-1.19,0-.33,0-.7,.01-1.09,0-.39,0-.79-.02-1.19-.03-.4-.08-.79-.17-1.18-.09-.38-.24-.72-.44-1.01-.2-.29-.47-.53-.8-.7-.33-.17-.76-.26-1.27-.26-.63,0-1.21,.18-1.73,.54-.52,.36-.97,.83-1.36,1.4-.39,.58-.73,1.22-1.01,1.94s-.52,1.43-.7,2.15c-.18,.72-.32,1.39-.4,2.03-.08,.63-.12,1.16-.12,1.57,0,1.42,.22,2.55,.65,3.39Z"/>
  </g>
  <g>
    <path class="cls-2" d="M290.53,168.11l-1.4,4.8,.05,.05c.43-.33,.92-.58,1.47-.74,.55-.16,1.1-.24,1.65-.24,.8,0,1.51,.14,2.12,.41,.62,.28,1.14,.65,1.56,1.12s.75,1.04,.96,1.7c.22,.66,.33,1.36,.33,2.11,0,.95-.16,1.85-.47,2.71-.32,.86-.83,1.6-1.53,2.24-.7,.6-1.42,1.03-2.17,1.28s-1.58,.38-2.5,.38c-1.62,0-2.91-.43-3.88-1.3s-1.45-2.11-1.45-3.73h2.25c0,2.12,1.07,3.18,3.2,3.18,.7,0,1.32-.12,1.85-.36,.53-.24,.98-.57,1.34-1,.36-.42,.63-.92,.83-1.49,.19-.57,.29-1.17,.29-1.8,0-1.15-.3-2.03-.9-2.65-.6-.62-1.48-.92-2.62-.92-.63,0-1.24,.15-1.83,.46-.58,.31-1.03,.73-1.33,1.26h-1.9l2.75-9.35h8.98l-.38,1.88h-7.28Z"/>
    <path class="cls-2" d="M299.82,174.88c.12-.81,.32-1.62,.59-2.45,.27-.83,.61-1.63,1.02-2.41,.42-.78,.91-1.48,1.48-2.08,.57-.6,1.22-1.08,1.97-1.45,.75-.37,1.58-.55,2.5-.55,1.55,0,2.73,.53,3.55,1.58s1.23,2.76,1.23,5.12c0,.55-.05,1.21-.16,1.98-.11,.77-.28,1.57-.51,2.41s-.55,1.67-.94,2.5c-.39,.82-.87,1.56-1.44,2.21-.57,.65-1.22,1.18-1.97,1.59s-1.62,.61-2.6,.61-1.71-.17-2.34-.53c-.62-.35-1.13-.83-1.51-1.45s-.65-1.34-.81-2.18c-.16-.83-.24-1.73-.24-2.7,0-.67,.06-1.4,.19-2.21Zm2.71,5.95c.43,.84,1.17,1.26,2.22,1.26,.65,0,1.23-.18,1.75-.55,.52-.37,.97-.83,1.35-1.4,.38-.57,.7-1.2,.96-1.89,.26-.69,.47-1.37,.62-2.03,.16-.66,.28-1.26,.35-1.8,.08-.54,.11-.94,.11-1.19,0-.33,0-.7,.01-1.09,0-.39,0-.79-.02-1.19-.03-.4-.08-.79-.17-1.18-.09-.38-.24-.72-.44-1.01-.2-.29-.47-.53-.8-.7-.33-.17-.76-.26-1.27-.26-.63,0-1.21,.18-1.73,.54-.52,.36-.97,.83-1.36,1.4-.39,.58-.73,1.22-1.01,1.94s-.52,1.43-.7,2.15c-.18,.72-.32,1.39-.4,2.03-.08,.63-.12,1.16-.12,1.57,0,1.42,.22,2.55,.65,3.39Z"/>
    <path class="cls-2" d="M313.72,174.88c.12-.81,.32-1.62,.59-2.45,.27-.83,.61-1.63,1.02-2.41,.42-.78,.91-1.48,1.48-2.08,.57-.6,1.22-1.08,1.97-1.45,.75-.37,1.58-.55,2.5-.55,1.55,0,2.73,.53,3.55,1.58s1.23,2.76,1.23,5.12c0,.55-.05,1.21-.16,1.98-.11,.77-.28,1.57-.51,2.41s-.55,1.67-.94,2.5c-.39,.82-.87,1.56-1.44,2.21-.57,.65-1.22,1.18-1.97,1.59s-1.62,.61-2.6,.61-1.71-.17-2.34-.53c-.62-.35-1.13-.83-1.51-1.45s-.65-1.34-.81-2.18c-.16-.83-.24-1.73-.24-2.7,0-.67,.06-1.4,.19-2.21Zm2.71,5.95c.43,.84,1.17,1.26,2.22,1.26,.65,0,1.23-.18,1.75-.55,.52-.37,.97-.83,1.35-1.4,.38-.57,.7-1.2,.96-1.89,.26-.69,.47-1.37,.62-2.03,.16-.66,.28-1.26,.35-1.8,.08-.54,.11-.94,.11-1.19,0-.33,0-.7,.01-1.09,0-.39,0-.79-.02-1.19-.03-.4-.08-.79-.17-1.18-.09-.38-.24-.72-.44-1.01-.2-.29-.47-.53-.8-.7-.33-.17-.76-.26-1.27-.26-.63,0-1.21,.18-1.73,.54-.52,.36-.97,.83-1.36,1.4-.39,.58-.73,1.22-1.01,1.94s-.52,1.43-.7,2.15c-.18,.72-.32,1.39-.4,2.03-.08,.63-.12,1.16-.12,1.57,0,1.42,.22,2.55,.65,3.39Z"/>
    <path class="cls-2" d="M327.62,174.88c.12-.81,.32-1.62,.59-2.45,.27-.83,.61-1.63,1.02-2.41,.42-.78,.91-1.48,1.48-2.08,.57-.6,1.22-1.08,1.97-1.45,.75-.37,1.58-.55,2.5-.55,1.55,0,2.73,.53,3.55,1.58s1.23,2.76,1.23,5.12c0,.55-.05,1.21-.16,1.98-.11,.77-.28,1.57-.51,2.41s-.55,1.67-.94,2.5c-.39,.82-.87,1.56-1.44,2.21-.57,.65-1.22,1.18-1.97,1.59s-1.62,.61-2.6,.61-1.71-.17-2.34-.53c-.62-.35-1.13-.83-1.51-1.45s-.65-1.34-.81-2.18c-.16-.83-.24-1.73-.24-2.7,0-.67,.06-1.4,.19-2.21Zm2.71,5.95c.43,.84,1.17,1.26,2.22,1.26,.65,0,1.23-.18,1.75-.55,.52-.37,.97-.83,1.35-1.4,.38-.57,.7-1.2,.96-1.89,.26-.69,.47-1.37,.62-2.03,.16-.66,.28-1.26,.35-1.8,.08-.54,.11-.94,.11-1.19,0-.33,0-.7,.01-1.09,0-.39,0-.79-.02-1.19-.03-.4-.08-.79-.17-1.18-.09-.38-.24-.72-.44-1.01-.2-.29-.47-.53-.8-.7-.33-.17-.76-.26-1.27-.26-.63,0-1.21,.18-1.73,.54-.52,.36-.97,.83-1.36,1.4-.39,.58-.73,1.22-1.01,1.94s-.52,1.43-.7,2.15c-.18,.72-.32,1.39-.4,2.03-.08,.63-.12,1.16-.12,1.57,0,1.42,.22,2.55,.65,3.39Z"/>
    <path class="cls-2" d="M341.52,174.88c.12-.81,.32-1.62,.59-2.45,.27-.83,.61-1.63,1.02-2.41,.42-.78,.91-1.48,1.48-2.08,.57-.6,1.22-1.08,1.97-1.45,.75-.37,1.58-.55,2.5-.55,1.55,0,2.73,.53,3.55,1.58s1.23,2.76,1.23,5.12c0,.55-.05,1.21-.16,1.98-.11,.77-.28,1.57-.51,2.41s-.55,1.67-.94,2.5c-.39,.82-.87,1.56-1.44,2.21-.57,.65-1.22,1.18-1.97,1.59s-1.62,.61-2.6,.61-1.71-.17-2.34-.53c-.62-.35-1.13-.83-1.51-1.45s-.65-1.34-.81-2.18c-.16-.83-.24-1.73-.24-2.7,0-.67,.06-1.4,.19-2.21Zm2.71,5.95c.43,.84,1.17,1.26,2.22,1.26,.65,0,1.23-.18,1.75-.55,.52-.37,.97-.83,1.35-1.4,.38-.57,.7-1.2,.96-1.89,.26-.69,.47-1.37,.62-2.03,.16-.66,.28-1.26,.35-1.8,.08-.54,.11-.94,.11-1.19,0-.33,0-.7,.01-1.09,0-.39,0-.79-.02-1.19-.03-.4-.08-.79-.17-1.18-.09-.38-.24-.72-.44-1.01-.2-.29-.47-.53-.8-.7-.33-.17-.76-.26-1.27-.26-.63,0-1.21,.18-1.73,.54-.52,.36-.97,.83-1.36,1.4-.39,.58-.73,1.22-1.01,1.94s-.52,1.43-.7,2.15c-.18,.72-.32,1.39-.4,2.03-.08,.63-.12,1.16-.12,1.57,0,1.42,.22,2.55,.65,3.39Z"/>
  </g>
  <g>
    <path class="cls-7" d="M159,202.05v835.59"/>
    <path class="cls-7" d="M319.6,202.05v835.59"/>
    <path class="cls-7" d="M478.33,202.05v835.59"/>
    <path class="cls-7" d="M638.93,202.05v835.59"/>
    <path class="cls-7" d="M797.67,202.05v835.59"/>
    <path class="cls-7" d="M956.4,202.05v835.59"/>
    <path class="cls-7" d="M1117,202.05v835.59"/>
  </g>
  <line class="cls-6" x1="449.12" y1="409.92" x2="727.44" y2="409.92"/>
  <line class="cls-6" x1="530.12" y1="541.92" x2="1035" y2="541.92"/>
  <line class="cls-6" x1="530.12" y1="673.92" x2="864" y2="673.92"/>
  <line class="cls-6" x1="607.12" y1="806.92" x2="808" y2="806.92"/>
  <line class="cls-6" x1="697.12" y1="938.92" x2="1051" y2="938.92"/>
  <circle class="cls-1" cx="392.3" cy="270.5" r="17.5"/>
  <circle class="cls-1" cx="727.44" cy="409.92" r="17.5"/>
  <circle class="cls-1" cx="868.05" cy="674.32" r="17.5"/>
  <circle class="cls-1" cx="808.34" cy="806.52" r="17.5"/>
  <circle class="cls-1" cx="1050.07" cy="938.72" r="17.5"/>
  <circle class="cls-1" cx="1030.81" cy="542.12" r="17.5"/>
  <circle class="cls-4" cx="405.78" cy="270.5" r="17.5"/>
  <circle class="cls-4" cx="449.12" cy="409.92" r="17.5"/>
  <circle class="cls-4" cx="536.76" cy="542.12" r="17.5"/>
  <circle class="cls-4" cx="537.72" cy="674.32" r="17.5"/>
  <circle class="cls-4" cx="617.65" cy="806.52" r="17.5"/>
  <circle class="cls-4" cx="695.66" cy="938.72" r="17.5"/>
  <g>
    <path class="cls-1" d="M109.87,80.29v-15.08c0-.61-.5-1.11-1.11-1.11h-28.89c-.61,0-1.11,.5-1.11,1.11v15.08l15.56,8.12,15.56-8.12Zm-16.67,2.7v-1.11h-2.22c-.61,0-1.11-.5-1.11-1.11s.5-1.11,1.11-1.11h4.44c.61,0,1.11-.5,1.11-1.11s-.5-1.11-1.11-1.11h-2.22c-1.84,0-3.33-1.49-3.33-3.33s1.49-3.33,3.33-3.33v-1.11c0-.61,.5-1.11,1.11-1.11s1.11,.5,1.11,1.11v1.11h2.22c.61,0,1.11,.5,1.11,1.11s-.5,1.11-1.11,1.11h-4.44c-.61,0-1.11,.5-1.11,1.11s.5,1.11,1.11,1.11h2.22c1.84,0,3.33,1.49,3.33,3.33s-1.49,3.33-3.33,3.33v1.11c0,.61-.5,1.11-1.11,1.11-.61,0-1.11-.5-1.11-1.11Z"/>
    <path class="cls-1" d="M76.54,75.22l-3.43,2.13,3.43,1.79v-3.92Z"/>
    <path class="cls-1" d="M112.1,75.22v3.92l3.43-1.79-3.43-2.13Z"/>
    <path class="cls-1" d="M94.83,90.65c-.32,.17-.71,.17-1.03,0l-21.71-11.33v23.67c0,.61,.5,1.11,1.11,1.11h42.22c.61,0,1.11-.5,1.11-1.11v-23.67l-21.71,11.33Z"/>
  </g>
  <g>
    <path class="cls-4" d="M252.1,80.29v-15.08c0-.61-.5-1.11-1.11-1.11h-28.89c-.61,0-1.11,.5-1.11,1.11v15.08l15.56,8.12,15.56-8.12Zm-16.67,2.7v-1.11h-2.22c-.61,0-1.11-.5-1.11-1.11s.5-1.11,1.11-1.11h4.44c.61,0,1.11-.5,1.11-1.11s-.5-1.11-1.11-1.11h-2.22c-1.84,0-3.33-1.49-3.33-3.33s1.49-3.33,3.33-3.33v-1.11c0-.61,.5-1.11,1.11-1.11s1.11,.5,1.11,1.11v1.11h2.22c.61,0,1.11,.5,1.11,1.11s-.5,1.11-1.11,1.11h-4.44c-.61,0-1.11,.5-1.11,1.11s.5,1.11,1.11,1.11h2.22c1.84,0,3.33,1.49,3.33,3.33s-1.49,3.33-3.33,3.33v1.11c0,.61-.5,1.11-1.11,1.11-.61,0-1.11-.5-1.11-1.11Z"/>
    <path class="cls-4" d="M218.76,75.22l-3.43,2.13,3.43,1.79v-3.92Z"/>
    <path class="cls-4" d="M254.32,75.22v3.92l3.43-1.79-3.43-2.13Z"/>
    <path class="cls-4" d="M237.06,90.65c-.32,.17-.71,.17-1.03,0l-21.71-11.33v23.67c0,.61,.5,1.11,1.11,1.11h42.22c.61,0,1.11-.5,1.11-1.11v-23.67l-21.71,11.33Z"/>
  </g>
</svg>