<?xml version="1.0" encoding="UTF-8"?>
<svg id="_圖層_1" data-name="圖層 1" xmlns="http://www.w3.org/2000/svg" viewBox="0 0 800 240">
  <defs>
    <style>
      .cls-1 {
        fill: none;
        stroke: #dae2e8;
        stroke-miterlimit: 10;
        stroke-width: 6px;
      }

      .cls-2 {
        fill: #dae2e8;
      }
    </style>
  </defs>
  <g>
    <path class="cls-2" d="M23.91,136.37l-4.13,5.1c-.23-.29-.65-.76-1.26-1.41-.55-.61-.97-1.08-1.26-1.41v9.38h-7v-8.26c-1.68,2.24-3.4,4.08-5.15,5.54-1.59-2.2-3.14-3.92-4.66-5.15,3.01-1.98,5.69-4.65,8.02-8.02,.16-.23,.31-.45,.44-.68H1.99v-6.03H10.25v-3.01H1.85v-5.88H5.88c-.19-1.3-.62-2.79-1.26-4.47l2.67-.63H2.43v-5.83h7.82v-4.23h7v4.23h7.82v5.83h-4.03l2.14,.39c-.23,.52-.55,1.26-.97,2.24-.52,1.17-.89,1.99-1.12,2.48h4.28v5.88h-8.11v3.01h7.63v6.03h-7.63v.05c.29,.19,2.46,1.78,6.51,4.76,.06,.03,.11,.07,.15,.1Zm-7.29-24.93h-6.17c.78,1.85,1.23,3.35,1.36,4.52l-2.19,.58h8.5l-3.01-.58c.74-2.04,1.25-3.55,1.51-4.52Zm16.91-.29v5.93h14.92v6.71h-4.23v24.05h-7v-24.05h-3.69c-.23,11.05-2.75,19.16-7.58,24.34-.68-1.26-1.93-2.59-3.74-3.98-.55-.39-1.04-.7-1.46-.92,3.63-4.02,5.59-9.98,5.88-17.88,.03-1,.05-2.11,.05-3.3v-17.4l3.94,1.12c5.31-1.43,9.35-2.9,12.1-4.42l5.73,5.2c-3.63,1.65-8.6,3.19-14.92,4.62Z"/>
    <path class="cls-2" d="M64.48,109.49h10.64s-.02,1.09-.05,3.16c-.32,15.13-.76,24.34-1.31,27.65-.29,1.65-.65,2.8-1.07,3.45-1.04,1.49-2.27,2.45-3.69,2.87-.16,.03-.32,.06-.49,.1-1.2,.29-3.22,.4-6.07,.34-.13-2.4-.73-4.66-1.8-6.8-.07-.1-.11-.18-.15-.24-1.33,3.17-2.9,5.86-4.71,8.07-1.07-1.72-2.54-3.3-4.42-4.76-.32-.26-.62-.47-.87-.63,3.4-3.98,5.51-9.78,6.32-17.4,.26-2.49,.44-5.41,.53-8.75h-5.2v-7.05h5.3v-7.92h7.09c0,3.6-.02,6.24-.05,7.92Zm3.55,7.05h-3.69c-.39,10.04-1.65,17.78-3.79,23.23,1.56,.13,2.93,.19,4.13,.19,.71-.03,1.28-.36,1.7-.97,.71-1,1.2-6.25,1.46-15.74,.06-1.94,.13-4.18,.19-6.71Zm9.18-10.3h18.76v40.33h-7.24v-3.01h-4.57v3.4h-6.95v-40.72Zm6.95,30.37h4.57v-23.42h-4.57v23.42Z"/>
    <path class="cls-2" d="M142.18,119.65l4.52,1.51c-1.36,6.74-3.73,12.29-7.09,16.67,2.72,1.85,5.75,3.21,9.09,4.08-1.55,1.46-2.95,3.29-4.18,5.49-.13,.26-.24,.49-.34,.68-3.73-1.26-6.92-2.98-9.57-5.15-2.43,1.94-5.28,3.61-8.55,5-.94-1.98-2.19-3.81-3.74-5.49-.13-.13-.23-.23-.29-.29,2.95-1,5.56-2.4,7.82-4.18-1.81-2.33-3.43-5.17-4.86-8.5-1,8.23-3.45,14.38-7.34,18.46-1.1-1.33-2.59-2.67-4.47-4.03-.36-.26-.66-.45-.92-.58,2.43-2.59,4.15-5.91,5.15-9.96-5.09,2.59-9.82,4.91-14.19,6.95l-2.82-7.09c.06-.03,1.99-.76,5.78-2.19v-12.1h-4.96v-6.8h4.96v-10.54h6.71v10.54h4.96v6.8h-4.96v9.38l3.64-1.56,1.26,4.86c.55-2.88,.83-6.51,.83-10.88v-13.51h10.59v-6.41h7.05v6.41h5.44l1.12-.24,5.3,1.02c-1,4.66-2.09,8.42-3.26,11.27l-6.32-1.31c.29-1.04,.63-2.4,1.02-4.08h-3.3v5.98h4.71l1.21-.19Zm-12.97-5.78h-3.69v5.98h3.69v-5.98Zm9.09,12.24h-8.02c1.2,2.79,2.61,5.13,4.23,7.05,1.52-2.07,2.79-4.42,3.79-7.05Z"/>
    <path class="cls-2" d="M194.32,133.21h-18.9c-.03,.16-.1,.41-.19,.73-.07,.36-.11,.62-.15,.78h19.83v13.22h-6.37v-1.07h-8.84v1.07h-6.07v-7.73c-1.2,3.08-2.77,5.6-4.71,7.58-.88-1.2-2.17-2.48-3.89-3.84-.39-.29-.71-.52-.97-.68,3.47-3.5,5.28-8.89,5.44-16.18v-9.72c-.23,.13-.55,.31-.97,.53-.32-.78-.91-1.93-1.75-3.45v2.33h-3.6v5.93l3.5-.83,.87,6.12c-.49,.16-1.21,.39-2.19,.68-.97,.32-1.7,.57-2.19,.73v11.03c0,2.82-.52,4.73-1.55,5.73-.23,.23-.47,.42-.73,.58-1.52,.94-4.11,1.39-7.77,1.36-.23-2.23-.88-4.54-1.94-6.9,1.17,.03,2.61,.05,4.32,.05,.52-.13,.79-.42,.83-.87v-8.84l-4.67,1.46-1.55-7.34c2.2-.42,4.28-.86,6.22-1.31v-7.58h-5.44v-6.61h5.44v-9.28h6.85v9.28h3.6v.92c3.76-1.98,7.05-4.65,9.86-8.02,.62-.75,1.15-1.46,1.6-2.14h6.61c3.56,4.28,7.61,7.4,12.15,9.38,.52,.23,1.02,.42,1.51,.58-1.1,1.33-2.41,3.45-3.94,6.37-2.04-1-3.98-2.22-5.83-3.64v2.28h-14.14v-1.85c-1.65,1.3-3.34,2.4-5.05,3.3h24.78v15.84Zm-18.46-4.71h11.95v-1.36h-11.9l-.05,1.36Zm11.95-6.37h-11.9v1.26h11.9v-1.26Zm-9.57-11.22h7.19c-1.56-1.46-2.77-2.77-3.64-3.94-.87,1.17-2.06,2.48-3.55,3.94Zm10.3,28.77h-8.84v2.14h8.84v-2.14Z"/>
    <path class="cls-2" d="M227.45,133.98v6.12c2.2,.32,4.62,.49,7.24,.49,3.95,.06,8.28,.03,12.97-.1-1,1.65-1.8,3.82-2.38,6.51-.03,.16-.07,.31-.1,.44h-10.93c-7.52,0-13.31-1.25-17.4-3.74-2.04-1.26-3.82-2.87-5.35-4.81-1.78,4.02-3.9,7.06-6.37,9.13-1.49-1.59-3.22-3.08-5.2-4.47-.1-.07-.18-.11-.24-.15,4.21-3.3,6.9-9.14,8.07-17.49,.1-.61,.18-1.23,.24-1.85l7.48,.87c-.36,1.98-.83,4.13-1.41,6.46,1.46,2.69,3.42,4.78,5.88,6.27v-15.16h-18.46v-6.66h18.46v-3.74h-13.99v-6.61h13.99v-4.71h7.48v4.71h14.87v6.61h-14.87v3.74h18.9v6.66h-18.9v5.05h15.5v6.41h-15.5Z"/>
    <path class="cls-2" d="M296.11,118.53h-11.81c4.05,2.88,8.62,5.09,13.7,6.61-1.62,1.46-3.08,3.26-4.37,5.39-.1,.16-.18,.31-.24,.44-.71-.26-1.88-.76-3.5-1.51v18.56h-7.58v-1.36h-16.76v1.36h-7.19v-18.61c-1.68,.84-3.04,1.44-4.08,1.8-1.33-2.17-2.85-4.08-4.57-5.73-.07-.06-.11-.11-.15-.15,5.18-1.52,9.72-3.79,13.61-6.8h-11.9v-6.41h18.66v-2.48c-4.57,.32-8.76,.5-12.59,.53-.23-1.91-.83-3.95-1.8-6.12,12.86-.42,22.98-1.54,30.37-3.35l4.96,5.83c-4.44,1.04-8.89,1.81-13.36,2.33v3.26h18.61v6.41Zm-34.89,9.33h25.61c-3.37-1.98-6.48-4.37-9.33-7.19v6.17h-7.58v-6.22c-2.56,2.82-5.46,5.23-8.7,7.24Zm21.09,7v-1.65h-16.76v1.65h16.76Zm-16.76,6.41h16.76v-1.65h-16.76v1.65Z"/>
    <path class="cls-2" d="M312.25,118.63l-4.18,6.03c-1.69-1.55-4.36-3.11-8.02-4.66-.13-.06-.26-.13-.39-.19l3.89-5.49c3.17,1.04,5.88,2.33,8.11,3.89,.23,.16,.42,.31,.58,.44Zm26.43,18.42h-12.34v2.38c0,1.1,.26,1.77,.78,1.99,.45,.16,1.26,.24,2.43,.24h7.48c1.2,0,1.96-.34,2.28-1.02,.29-.65,.5-1.9,.63-3.74,1.56,1.04,3.48,1.83,5.78,2.38,.13,.03,.23,.05,.29,.05-.45,3.66-1.41,6.06-2.87,7.19-1.2,.88-3.05,1.31-5.54,1.31h-8.79c-3.82,0-6.35-.71-7.58-2.14-1-1.23-1.51-3.29-1.51-6.17v-7.43c-1.23,1.33-2.45,2.43-3.64,3.3-.42-.65-1.1-1.49-2.04-2.53-2.04,4.96-4.28,9.86-6.71,14.72l-6.51-4.28c2.92-4.89,5.59-10.22,8.02-15.99l2.92,2.24c3.11-2.27,5.64-5.12,7.58-8.55h-6.8v-6.46h7.63v-2.58h-5.78v-5.69l-3.6,5.1c-1.65-1.56-4.26-3.16-7.82-4.81-.26-.1-.49-.19-.68-.29l3.98-5.39c3.95,1.49,6.87,3,8.75,4.52l-.1,.15h5.25v-4.66h7.05v4.66h5.3v-4.66h7.14v4.66h5.88v6.41h-5.88v2.58h7.39v6.46h-6.71c2.07,3.34,4.67,5.98,7.77,7.92-1.65,1.33-3.21,3.01-4.66,5.05-.16,.26-.31,.49-.44,.68-1.43-1.07-2.87-2.49-4.32-4.28v6.66Zm-5.49-16.04h-6.61c-.36,.88-.88,1.98-1.56,3.3h9.67c-.58-1.1-1.09-2.2-1.51-3.3Zm-.92,10.69v-2.09h-5.93v2.09h5.93Zm-5.05-19.73v2.58h5.3v-2.58h-5.3Z"/>
    <path class="cls-2" d="M368.12,101.82h8.36c-.03,.91-.08,2.01-.15,3.3,.55,9.85,3.16,18.16,7.82,24.93,3.5,5.02,7.97,8.83,13.41,11.42-2.43,1.85-4.29,3.9-5.59,6.17-9.04-4.63-15.42-12.41-19.14-23.32-3.47,10.14-9.35,17.93-17.64,23.37-1.49-2.11-3.55-4.05-6.17-5.83,11.76-6.83,18.06-18.5,18.9-34.99,.03-.78,.08-1.85,.15-3.21,0-.87,.02-1.49,.05-1.85Z"/>
    <path class="cls-2" d="M445.09,116.39h-17.64l.05,5.49c2.62-1.65,4.84-3.38,6.66-5.2l7.24,4.42c-4.11,3.56-8.73,6.69-13.85,9.38l.05,8.94c0,3.11-.6,5.23-1.8,6.37-.42,.36-.91,.66-1.46,.92-1.88,.94-5.35,1.43-10.4,1.46h-.58c-.42-2.4-1.26-4.76-2.53-7.09-.1-.13-.18-.26-.24-.39,1.43,.06,4.03,.1,7.82,.1,.94,0,1.43-.36,1.46-1.07v-.29l-.1-5.2c-5.44,2.3-11.03,4.18-16.76,5.64-1.07-2.43-2.36-4.71-3.89-6.85,7.13-1.52,13.99-3.82,20.6-6.9l-.05-9.72h-18.76v-7.09h18.71l-.05-8.55,7.78-.05,.05,8.6h17.69v7.09Z"/>
    <path class="cls-2" d="M471.87,130.15c-.26-2.62,.86-5,3.35-7.14,.42-.39,1.1-.94,2.04-1.65,1.81-1.36,2.93-2.43,3.35-3.21,.26-.49,.39-.97,.39-1.46,0-2.14-1.26-3.42-3.79-3.84-.58-.1-1.18-.15-1.8-.15-2.69,.03-5.07,1.23-7.14,3.6l-4.86-4.47c2.79-3.43,6.33-5.47,10.64-6.12,.81-.1,1.6-.15,2.38-.15,5.28,0,9.02,1.47,11.22,4.42,1.2,1.65,1.8,3.63,1.8,5.93,0,2.17-1.1,4.16-3.3,5.98-.39,.32-1,.79-1.85,1.41-2.01,1.49-3.3,2.71-3.89,3.64-.58,1-.84,2.07-.78,3.21h-7.78Zm-1.99,8.31c0-2.17,.92-3.74,2.77-4.71,.94-.49,1.98-.73,3.11-.73,2.36,0,4.08,.88,5.15,2.62,.49,.84,.73,1.78,.73,2.82,0,2.14-.91,3.71-2.72,4.71-.94,.52-1.99,.78-3.16,.78-2.37,0-4.08-.89-5.15-2.67-.49-.84-.73-1.78-.73-2.82Z"/>
    <path class="cls-2" d="M552.53,118.53h-11.81c4.05,2.88,8.62,5.09,13.7,6.61-1.62,1.46-3.08,3.26-4.37,5.39-.1,.16-.18,.31-.24,.44-.71-.26-1.88-.76-3.5-1.51v18.56h-7.58v-1.36h-16.76v1.36h-7.19v-18.61c-1.68,.84-3.04,1.44-4.08,1.8-1.33-2.17-2.85-4.08-4.57-5.73-.06-.06-.11-.11-.15-.15,5.18-1.52,9.72-3.79,13.61-6.8h-11.9v-6.41h18.66v-2.48c-4.57,.32-8.76,.5-12.58,.53-.23-1.91-.83-3.95-1.8-6.12,12.86-.42,22.98-1.54,30.37-3.35l4.96,5.83c-4.44,1.04-8.89,1.81-13.36,2.33v3.26h18.61v6.41Zm-34.89,9.33h25.61c-3.37-1.98-6.48-4.37-9.33-7.19v6.17h-7.58v-6.22c-2.56,2.82-5.46,5.23-8.7,7.24Zm21.09,7v-1.65h-16.76v1.65h16.76Zm-16.76,6.41h16.76v-1.65h-16.76v1.65Z"/>
    <path class="cls-2" d="M568.66,118.63l-4.18,6.03c-1.68-1.55-4.36-3.11-8.02-4.66l-.39-.19,3.89-5.49c3.17,1.04,5.88,2.33,8.11,3.89,.23,.16,.42,.31,.58,.44Zm26.43,18.42h-12.34v2.38c0,1.1,.26,1.77,.78,1.99,.45,.16,1.26,.24,2.43,.24h7.48c1.2,0,1.96-.34,2.28-1.02,.29-.65,.5-1.9,.63-3.74,1.55,1.04,3.48,1.83,5.78,2.38,.13,.03,.23,.05,.29,.05-.45,3.66-1.41,6.06-2.87,7.19-1.2,.88-3.04,1.31-5.54,1.31h-8.79c-3.82,0-6.35-.71-7.58-2.14-1-1.23-1.51-3.29-1.51-6.17v-7.43c-1.23,1.33-2.45,2.43-3.64,3.3-.42-.65-1.1-1.49-2.04-2.53-2.04,4.96-4.28,9.86-6.71,14.72l-6.51-4.28c2.92-4.89,5.59-10.22,8.02-15.99l2.92,2.24c3.11-2.27,5.64-5.12,7.58-8.55h-6.8v-6.46h7.63v-2.58h-5.78v-5.69l-3.6,5.1c-1.65-1.56-4.26-3.16-7.82-4.81-.26-.1-.49-.19-.68-.29l3.98-5.39c3.95,1.49,6.87,3,8.75,4.52l-.1,.15h5.25v-4.66h7.05v4.66h5.3v-4.66h7.14v4.66h5.88v6.41h-5.88v2.58h7.39v6.46h-6.71c2.07,3.34,4.67,5.98,7.77,7.92-1.65,1.33-3.21,3.01-4.66,5.05-.16,.26-.31,.49-.44,.68-1.43-1.07-2.87-2.49-4.33-4.28v6.66Zm-5.49-16.04h-6.61c-.36,.88-.88,1.98-1.55,3.3h9.67c-.58-1.1-1.08-2.2-1.51-3.3Zm-.92,10.69v-2.09h-5.93v2.09h5.93Zm-5.05-19.73v2.58h5.3v-2.58h-5.3Z"/>
    <path class="cls-2" d="M647.28,119.84l4.67,1.56c-1.26,6.35-3.39,11.63-6.37,15.84,2.49,1.98,5.36,3.48,8.6,4.52-1.59,1.43-3.09,3.37-4.52,5.83-.1,.16-.18,.31-.24,.44-3.5-1.43-6.45-3.21-8.84-5.34-2.5,2.14-5.35,3.9-8.55,5.3-.84-1.75-1.96-3.45-3.35-5.1-.81,1.78-1.83,3.47-3.06,5.05-1.3-1.2-3.01-2.32-5.15-3.35-.29-.13-.53-.24-.73-.34,3.72-4.73,5.78-11.65,6.17-20.75-.91,1.17-1.85,2.35-2.82,3.55l2.04,2.58-4.08,4.76c-.23-.45-1-1.78-2.33-3.98v17.64h-6.85v-15.84c-1.17,1.13-2.32,2.14-3.45,3.01-.55-1.91-1.46-3.92-2.72-6.03-.19-.29-.36-.53-.49-.73,3.66-2.36,6.92-5.8,9.77-10.3,.52-.81,.99-1.6,1.41-2.38h-9.67v-6.41h5.15v-8.36h6.85v8.36h1.21l1.17-.29,3.79,2.58c-1.36,3.73-3.16,7.37-5.39,10.93l.73,.87c1.46-2.27,2.33-3.72,2.62-4.37l3.16,2.33v-13.85h9.96v-6.56h7v6.56h4.13l1.07-.19,5.15,.92c-.71,3.86-1.59,7.58-2.62,11.18l-6.17-1.12c.42-2.11,.7-3.53,.83-4.28h-2.38v6.03h3.06l1.26-.24Zm-18.03,21.62c2.46-1.1,4.67-2.49,6.61-4.18-1.46-2.14-2.74-4.45-3.84-6.95-.52,4.11-1.44,7.82-2.77,11.13Zm6.71-27.41h-3.16v6.03h3.16v-6.03Zm7.34,12.29h-5.98c.88,2.11,1.91,3.98,3.11,5.64,1.2-1.81,2.15-3.69,2.87-5.64Z"/>
    <path class="cls-2" d="M672.06,132.28v6.9c2.46,.81,5.99,1.21,10.59,1.21,9.88,0,16.72-.1,20.51-.29-1.04,1.52-1.86,3.63-2.48,6.32-.03,.19-.07,.37-.1,.53h-17.98c-6.45,0-11.27-.84-14.48-2.53-2.17-1.13-4-2.74-5.49-4.81-.55,3.47-1.47,6.33-2.77,8.6-1.04-1.07-2.51-2.22-4.42-3.45-.16-.1-.31-.18-.44-.24,1.81-3.27,2.77-9.07,2.87-17.4v-3.21l5.88,.29c-.07,2.79-.13,4.84-.19,6.17,.55,1.46,1.25,2.8,2.09,4.03v-12.88h-9.13v-6.27h8.07v-3.69h-6.51v-6.17h6.51v-4.52h6.46v4.52h6.32v6.17h-6.32v3.69h7v6.27h-5.98v4.57h5.59v6.17h-5.59Zm14.58,7.05v-6.17h-8.16v-5.64h8.16v-2.14h-7.43v-5.35h22.01v5.35h-7.92v2.14h8.94v5.64h-8.94v6.17h-6.66Zm14.19-37.07v16.13h-21.33v-16.13h21.33Zm-6.71,5.98v-1.51h-8.21v1.51h8.21Zm0,5.69v-1.51h-8.21v1.51h8.21Z"/>
    <path class="cls-2" d="M721.77,132.33v6.71c2.11,.58,5.22,.87,9.33,.87,9.88,.1,17.28,.02,22.21-.24-1.1,1.62-1.98,3.82-2.62,6.61-.07,.23-.11,.42-.15,.58h-19.49c-6.35,0-11.05-.79-14.09-2.38-1.75-.91-3.24-2.14-4.47-3.69-.52,2.79-1.2,5.18-2.04,7.19-1.62-1.1-3.45-2.07-5.49-2.92-.13-.03-.23-.07-.29-.1,1.81-3.72,2.74-10.53,2.77-20.41v-1.02l6.27,.44c0,.94-.08,3.16-.24,6.66,.49,1.39,1.13,2.72,1.94,3.98v-12.97h-9.18v-6.37h8.11v-3.64h-6.9v-6.22h6.9v-4.52h6.61v4.52h6.66v6.22h-6.66v3.64h7.48v.68c2.56-1.78,4.23-4.28,5-7.48h-4.37v-5.98h22.16s-.02,.81-.05,2.33c-.26,6.84-.78,11.03-1.55,12.58-.13,.26-.26,.47-.39,.63-.91,1.04-2.12,1.68-3.64,1.94-1.26,.19-3.13,.26-5.59,.19-.1-2.07-.65-4.03-1.65-5.88-.03-.06-.06-.11-.1-.15-1.39,2.82-3.35,5.1-5.88,6.85-1-.97-2.32-2.01-3.94-3.11v3.74h-6.66v4.47h5.93v6.22h-5.93Zm8.41,5.2v-15.89h19.83v15.89h-19.83Zm6.71-10.2v4.47h5.98v-4.47h-5.98Zm7.24-18.85h-3.94c-.42,1.98-1.07,3.87-1.94,5.69,1.07,.1,2.27,.15,3.6,.15,.65-.03,1.13-.19,1.46-.49,.39-.58,.66-2.36,.83-5.34Z"/>
    <path class="cls-2" d="M778.04,130.15c-.26-2.62,.86-5,3.35-7.14,.42-.39,1.1-.94,2.04-1.65,1.81-1.36,2.93-2.43,3.35-3.21,.26-.49,.39-.97,.39-1.46,0-2.14-1.26-3.42-3.79-3.84-.58-.1-1.18-.15-1.8-.15-2.69,.03-5.07,1.23-7.14,3.6l-4.86-4.47c2.79-3.43,6.33-5.47,10.64-6.12,.81-.1,1.6-.15,2.38-.15,5.28,0,9.02,1.47,11.22,4.42,1.2,1.65,1.8,3.63,1.8,5.93,0,2.17-1.1,4.16-3.3,5.98-.39,.32-1,.79-1.85,1.41-2.01,1.49-3.3,2.71-3.89,3.64-.58,1-.84,2.07-.78,3.21h-7.78Zm-1.99,8.31c0-2.17,.92-3.74,2.77-4.71,.94-.49,1.98-.73,3.11-.73,2.36,0,4.08,.88,5.15,2.62,.49,.84,.73,1.78,.73,2.82,0,2.14-.91,3.71-2.72,4.71-.94,.52-1.99,.78-3.16,.78-2.37,0-4.08-.89-5.15-2.67-.49-.84-.73-1.78-.73-2.82Z"/>
    <path class="cls-2" d="M48.49,187.5h-2.53c-.84,7.61-2.35,13.77-4.52,18.46,2.01,3.3,4.47,5.82,7.39,7.53-1.59,1.33-3.01,3-4.28,5-.16,.26-.31,.5-.44,.73-2.62-1.78-4.86-4.02-6.71-6.71-2.33,2.79-5,5.05-8.02,6.8-.49-1.23-1.39-2.74-2.72-4.52l-3.89,3.89c-1.36-.91-3.09-1.94-5.2-3.11-2.75,1.59-6.95,2.82-12.58,3.69-.36-1.85-1.17-3.66-2.43-5.44,3.43-.26,6.27-.71,8.5-1.36l-1.17-.49-.15,.24-5.78-1.36c1.23-1.85,2.09-3.17,2.58-3.98l-4.91,.05-.19-5.15c3.4,0,6.09-.02,8.07-.05l.73-1.41H3.4v-9.77H11.9v-1.17H4.28v-5.25H1.26v-5h3.01v-5.15h7.63v-2.19h6.12v2.19h8.11v5.15h3.11v5h-3.11v5.25h-8.11v1.17h8.99v1.02c2.4-4.86,4.03-11.47,4.91-19.83l6.9,1.02c-.29,2.4-.75,5.09-1.36,8.07h11.03v6.66Zm-39.26,7.29v1.36h2.67v-1.36h-2.67Zm2.67-16.42h-1.75v1.17h1.75v-1.17Zm-1.75,6.61h1.75v-1.21h-1.75v1.21Zm3.01,21.77l-.49,.88c1.75,.65,3.08,1.15,3.98,1.51,.62-.74,1.15-1.55,1.6-2.43l-5.1,.05Zm15.79-.29l-4.28,.1c-.62,2.11-1.44,3.81-2.48,5.1,.52,.23,1.65,.83,3.4,1.8,3.43-1.81,6.2-4.31,8.31-7.48-.94-2.36-1.77-4.99-2.48-7.87-.49,.88-.99,1.64-1.51,2.28-.71-1-1.69-2.12-2.92-3.35v3.3h-10.84l.63,.15-.63,1.21c1.39,0,3.53-.03,6.41-.1,2.95-.03,5.13-.06,6.56-.1l-.19,4.96Zm-9.04-28.09h-1.9v1.17h1.9v-1.17Zm-1.9,6.61h1.9v-1.21h-1.9v1.21Zm2.77,9.82h-2.77v1.36h2.77v-1.36Zm18.51-7.29h-3.5l-.05,.19c.52,3.5,1.17,6.62,1.94,9.38,.81-3.17,1.34-6.37,1.6-9.57Z"/>
    <path class="cls-2" d="M66.47,199.11l-4.08,1.12v11.61c0,2.72-.52,4.55-1.56,5.49-.19,.19-.39,.36-.58,.49-1.46,.87-3.82,1.31-7.09,1.31-.23-2.17-.83-4.36-1.8-6.56,1.07,.07,2.35,.1,3.84,.1,.49-.13,.74-.41,.78-.83v-9.82l-3.98,1.07-1.51-6.95c1.68-.32,3.51-.71,5.49-1.17v-7.43h-4.52v-6.61h4.52v-9.13h6.41v9.13h3.45v6.61h-3.45v5.88l3.21-.78,.87,6.46Zm27.75,2.19l3.74,3.06c-1.39,1.2-2.93,2.32-4.62,3.35,1.56,2.4,3.42,4.16,5.59,5.3-1.43,1.26-2.62,2.75-3.6,4.47-.06,.16-.13,.29-.19,.39-4.41-2.82-7.48-8.39-9.23-16.72-.03-.16-.07-.31-.1-.44-.68,.55-1.51,1.12-2.48,1.7,2.92,2.46,4.44,5.49,4.57,9.09,.1,2.59-.5,4.54-1.8,5.83-.03,.03-.07,.06-.1,.1-1.1,1.13-2.53,1.73-4.28,1.8-1.13,0-1.98-.02-2.53-.05-.07-1.59-.41-3.01-1.02-4.28-2.07,1.07-3.95,1.9-5.64,2.48-.71-1.33-1.44-2.41-2.19-3.26-.65,1.78-1.46,3.42-2.43,4.91-1.2-1.13-2.74-2.2-4.62-3.21-.26-.13-.49-.24-.68-.34,2.56-3.76,3.9-9.67,4.03-17.74v-17.15h10.64v-8.55h6.95v2.09h11.18v4.86h-11.18v1.6h8.26l.92-.15,4.42,.78c-.62,3.21-1.44,6.14-2.48,8.79l-5.35-1.07c.36-1.13,.65-2.27,.88-3.4h-7.53v1.31l5.69-.53,.39,3.74-6.07,.58c.06,.52,.32,.81,.78,.87,.26,.03,.58,.05,.97,.05h4.57c.74,0,1.2-.24,1.36-.73,.1-.29,.16-.65,.19-1.07,1.36,.68,2.9,1.17,4.62,1.46-.26,2.01-1.05,3.25-2.38,3.74-.75,.29-1.77,.44-3.06,.44h-6.12c-3.14,0-5.12-.52-5.93-1.55-.49-.65-.76-1.54-.83-2.67l-4.03,.34-.39-3.84,4.37-.34v-1.8h-4.67v10.3c0,4.54-.29,8.58-.87,12.15,3.11-.71,5.7-1.68,7.77-2.92-.06-.06-.26-.26-.58-.58-1.59,.68-3.08,1.2-4.47,1.56-.55-1.23-1.2-2.35-1.94-3.35,2.27-.52,4.41-1.21,6.41-2.09h-5.64v-4.47h24.25v4.47h-7.29c.19,.84,.52,1.89,.97,3.16,.87-.68,1.8-1.51,2.77-2.48Zm-23.66,12.39c3.98-1.07,7.45-2.59,10.4-4.57,.42-.29,.79-.57,1.12-.83-.03-.1-.1-.21-.19-.34-.1-.16-.16-.27-.19-.34-2.46,1.55-4.96,2.79-7.48,3.69-.68-1.36-1.43-2.45-2.24-3.25-.36,1.94-.83,3.82-1.41,5.64Zm10.06,.78c.78-.03,1.33-.29,1.65-.78,.23-.39,.37-.87,.44-1.46-1.62,1.04-2.82,1.77-3.6,2.19,.39,.03,.89,.05,1.51,.05Z"/>
    <path class="cls-2" d="M129.64,189h16.86v6.71h-44.17v-6.71h5.05c-1.78-1.2-3.76-2.32-5.93-3.35,3.11-2.79,5.64-6.72,7.58-11.81,.26-.71,.5-1.41,.73-2.09l7.24,1.8c-.49,1.49-1.04,2.93-1.65,4.33h6.56v-6.07h7.73v6.07h14.09v6.61h-14.09v4.52Zm-21.87,30.08v-20.6h34.45v20.41h-7.82v-1.99h-19.14v2.19h-7.48Zm14.14-34.6h-10.11c-1.23,1.88-2.33,3.39-3.3,4.52h13.41v-4.52Zm12.49,20.65h-19.14v5.1h19.14v-5.1Z"/>
    <path class="cls-2" d="M171.38,180.06v5.64h-20.85v-5.64h20.85Zm26.73,24.59l-3.74,6.51c-.36-.29-.91-.68-1.65-1.17v9.04h-7.19v-13.07c-2.01-1.04-3.98-1.96-5.93-2.77-.91,6.58-2.8,11.69-5.69,15.35-.71-1.3-2.01-2.66-3.89-4.08-.29-.2-.55-.37-.78-.54v2.62h-10.2v1.8h-6.22v-17.25h16.42v11.13c2.36-3.82,3.61-9.46,3.74-16.91v-18.76l4.23,1.12c5.54-1.68,9.93-3.53,13.17-5.54l6.51,5.1c-4.57,2.3-10.14,4.29-16.72,5.98v4.08h17.64v6.71h-5.1v7.58c2.56,1.33,4.36,2.35,5.39,3.06Zm-28.72-17.44v5.34h-16.38v-5.34h16.38Zm-16.38,12.25v-5.39h16.38v5.39h-16.38Zm16.47-26.19v5.39h-16.18v-5.39h16.18Zm-6.56,37.66v-4.23h-3.89v4.23h3.89Zm17.01-11.32l1.65-2.72c1.23,.42,2.54,.92,3.94,1.51v-4.37h-5.35c0,1.52-.08,3.38-.24,5.59Z"/>
    <path class="cls-2" d="M210.06,172.04l6.85,2.14c-1.23,3.21-2.75,6.53-4.57,9.96v34.89h-6.85v-24.15c-.49,.62-1.3,1.56-2.43,2.82-.75-2.17-1.85-4.47-3.3-6.9-.19-.29-.36-.54-.49-.73,3.72-3.79,6.88-8.67,9.48-14.62,.49-1.13,.92-2.27,1.31-3.4Zm29.93,15.02h-5.2v24.15c0,2.82-.53,4.76-1.6,5.83-.29,.26-.6,.49-.92,.68-1.65,.94-4.26,1.41-7.82,1.41-.32-2.3-1.07-4.6-2.24-6.9-.1-.13-.16-.24-.19-.34,1.3,.03,2.87,.05,4.71,.05,.58-.06,.89-.34,.92-.83v-24.05h-4.81c-1.52,2.85-3.06,5.22-4.62,7.09-1.62-1.62-3.52-3.17-5.69-4.67-.07-.03-.11-.06-.15-.1,3.3-3.47,5.96-8.39,7.97-14.77,.26-.88,.5-1.75,.73-2.62l7.09,1.6c-.65,2.36-1.41,4.63-2.28,6.8h15.5l1.12-.19,5.1,.87c-.45,3.69-1.17,7.78-2.14,12.25l-6.17-1.12c.39-2.92,.62-4.63,.68-5.15Zm-20.6,7.58l7,1.46c-1.36,6.22-3.35,11.47-5.98,15.74-.19,.29-.37,.57-.53,.83-1.49-1.26-3.43-2.51-5.83-3.74-.13-.06-.23-.11-.29-.15,2.46-3.14,4.28-7.51,5.44-13.12,.06-.36,.13-.7,.19-1.02Zm16.18,1.6l6.46-2.19c2.27,4.7,3.85,9.59,4.76,14.67,.1,.49,.18,.94,.24,1.36l-6.95,2.43c-.36-4.08-1.55-8.75-3.6-13.99-.29-.81-.6-1.57-.92-2.28Z"/>
    <path class="cls-2" d="M296.02,210.09h-11.08c5.51,1.88,9.46,3.3,11.86,4.28l-6.22,4.76c-4.37-2.07-9.07-3.97-14.09-5.68l3.45-3.35h-13.7l4.71,3.4c-3.63,2.14-8.15,3.9-13.56,5.3-.52,.16-1.02,.29-1.51,.39-1.59-1.85-3.22-3.48-4.91-4.91,4.54-.87,8.71-2.27,12.54-4.18h-12.1v-5.88h44.61v5.88Zm-26.29-27.6v-1.46h-16.81v-5.98h16.81v-3.3h7.68v3.3h17.64v5.98h-17.64v1.46h12.2v20.36h-31v-20.36h11.13Zm12.49,5.54v-1.46h-16.67v1.46h16.67Zm0,5.39v-1.51h-16.67v1.51h16.67Zm0,5.34v-1.51h-16.67v1.51h16.67Z"/>
    <path class="cls-2" d="M340.43,212.08h-5.05c4.4,1.3,7.74,2.32,10.01,3.06l-6.22,3.94c-4.08-1.65-8.84-3.25-14.29-4.81l2.67-2.19h-8.36l2.96,2.09c-3.76,1.98-8.71,3.48-14.87,4.52-.75,.13-1.46,.24-2.14,.34-1.23-1.62-2.67-3.16-4.32-4.62,3.53-.42,7.29-1.2,11.27-2.33h-5.34v-17.15h33.67v17.15Zm-2.87-26.97h8.11v5h-8.6l-.39,3.74h-28.72l.44-3.74h-7.14v-5h7.77l.49-3.84h28.43l-.39,3.84Zm-29.15-5.05v3.69h-6.46v-9.18h17.83v-2.82h7.29v2.82h17.88v9.18h-6.75v-3.69h-29.79Zm5.3,18.46v1.02h19.39v-1.02h-19.39Zm0,4.37v1.07h19.39v-1.07h-19.39Zm0,4.52v1.02h19.39v-1.02h-19.39Zm1.17-17.98l-.15,.97h4.71l.15-.97h-4.71Zm5.25-4.71h-4.66l-.15,1.07h4.71l.1-1.07Zm5.25,5.69h5.05l.1-.97h-5l-.15,.97Zm5.54-4.62l.1-1.07h-4.96l-.1,1.07h4.96Z"/>
    <path class="cls-2" d="M355.73,203.43v-31.63h16.91v6.51h-9.77v25.12h-7.14Z"/>
    <path class="cls-2" d="M415.74,191.19l5.25,2.92c-1.62,4.89-3.89,9.43-6.8,13.61,.55,1.68,1.15,2.58,1.8,2.67,.65,.07,1.07-2.01,1.26-6.22v-.1c.94,1.26,2.59,2.59,4.96,3.99,.1,.06,.18,.11,.24,.15-1.17,7.26-3.34,10.88-6.51,10.88-2.79-.19-5.04-2.02-6.75-5.49-1.91,1.91-4.06,3.58-6.46,5-1.36-1.85-3.09-3.52-5.2-5,.49-.23,1.12-.57,1.9-1.02h-7.92v6.51h-6.95v-6.51h-10.25v-6.32h10.25v-1.9h-8.36v-18.8h24.05v18.8h-8.75v1.9h9.91v5.1c1.91-1.36,3.72-3,5.44-4.91-.88-4.15-1.52-8.81-1.94-13.99l-3.4,.49-.83-6.8,3.79-.44c-.23-3.76-.39-8.28-.49-13.56h6.8c0,3.82,.11,8.08,.34,12.78l10.11-1.21,.78,6.66-6.27,.83Zm-28.33-18.17v11.08h-11.76v-11.08h11.76Zm-5.25,6.66v-2.28h-1.51v2.28h1.51Zm-.1,11.13v1.7h2.96v-1.7h-2.96Zm0,6.61v1.75h2.96v-1.75h-2.96Zm18.56-24.39v11.08h-11.71v-11.08h11.71Zm-6.56,19.48v-1.7h-3.01v1.7h3.01Zm0,6.66v-1.75h-3.01v1.75h3.01Zm1.36-19.49v-2.28h-1.56v2.28h1.56Zm26.09,1.21l-5.78,3.11c-.71-2.59-2.04-5.46-3.98-8.6-.03-.1-.07-.16-.1-.19l5.44-2.77c2.3,3.47,3.77,6.29,4.42,8.46Zm-6.03,10.3l-3.84,.49c.2,2.56,.44,4.88,.73,6.95,1.23-2.27,2.27-4.75,3.11-7.43Z"/>
    <path class="cls-2" d="M437.46,190.17l-4.08,5.98c-1.81-1.65-4.73-3.38-8.75-5.2-.19-.1-.37-.18-.53-.24l3.74-5.44c3.95,1.43,7.06,2.98,9.33,4.66,.1,.1,.19,.18,.29,.24Zm-1.51,7.63l5.34,4.37c-3.04,5.93-6.14,11.37-9.28,16.33l-6.17-4.42c3.53-4.89,6.9-10.32,10.11-16.28Zm4.28-21.09l-4.23,5.88c-1.69-1.65-4.46-3.37-8.31-5.15-.19-.06-.36-.13-.49-.2l3.94-5.3c4.02,1.49,7,3.05,8.94,4.67,.06,.03,.11,.06,.15,.1Zm23.08,35.47h1.17c.42,0,.7-.62,.83-1.85,.1-.97,.18-2.62,.24-4.96,1.29,1.07,3.3,1.99,6.03,2.77,.13,0,.23,.02,.29,.05-.36,4.92-1.31,8.03-2.87,9.33-.94,.75-2.2,1.12-3.79,1.12h-3.26c-2.85,0-4.7-.75-5.54-2.24-.68-1.2-1.02-3.24-1.02-6.12v-14.43h-2.72c-.16,6.38-.84,11.08-2.04,14.09-1.69,4.11-4.83,7.19-9.43,9.23-.71-1.75-1.88-3.48-3.5-5.2-.26-.26-.5-.49-.73-.68,3.63-1.49,6.03-3.68,7.19-6.56,.81-1.98,1.29-5.33,1.46-10.06v-.83h-3.6v-21.87h26.77v21.87h-6.17v14.33c0,1.2,.11,1.85,.34,1.94,.1,.03,.21,.05,.34,.05Zm-14.24-31.54v8.55h12.29v-8.55h-12.29Z"/>
    <path class="cls-2" d="M490.14,187.5v31.58h-16.91v-6.46h9.77v-25.12h7.14Z"/>
  </g>
  <g>
    <path class="cls-2" d="M19.3,50.84h11.64v3.17H3.72v-3.17H15.5v-2.11H7.52v-2.86h7.99v-1.87h-6.54c-.9,1.17-1.86,2.19-2.86,3.08-1.17-1.04-2.19-1.8-3.08-2.26,2.03-1.49,3.64-3.4,4.82-5.73,.12-.2,.22-.39,.3-.57h-1.45v-11.46H27.81v11.46H9.35l2.56,.75c-.32,.62-.62,1.19-.9,1.69h4.49v-1.87h3.8v1.87h9.68v3.04h-9.68v1.87h8.26v2.86h-8.26v2.11ZM10.35,29.82v1.63h13.63v-1.63H10.35Zm0,4.22v1.66h13.63v-1.66H10.35Z"/>
    <path class="cls-2" d="M40.95,37.15l-2.11,3.08c-1.07-1-2.77-2.04-5.12-3.11-.02-.02-.04-.03-.06-.03l1.96-2.74c2.23,.8,3.97,1.71,5.22,2.71,.04,.04,.08,.07,.12,.09Zm16.52,10.82h-8.23v2.11c0,.64,.17,1.04,.51,1.18,.28,.1,.78,.15,1.51,.15h5.37c.74,0,1.23-.21,1.45-.63,.2-.4,.34-1.24,.42-2.5,.8,.56,1.84,.98,3.11,1.27-.24,2.17-.74,3.58-1.51,4.22-.66,.54-1.73,.81-3.2,.81h-5.97c-2.19,0-3.63-.4-4.31-1.21-.52-.64-.78-1.73-.78-3.26v-5.94c-.86,1.01-1.78,1.87-2.74,2.59-.32-.48-.7-.96-1.15-1.45-1.41,3.34-2.82,6.37-4.25,9.1l-3.29-2.17c1.83-3.16,3.48-6.45,4.94-9.89l1.69,1.27c1.93-1.35,3.52-3.12,4.76-5.31,.06-.1,.11-.19,.15-.27h-4.67v-3.29h5.03v-2.35h-3.83v-3.17l-2.02,2.8c-1.05-1-2.67-2.03-4.88-3.08-.14-.06-.26-.11-.36-.15l2.08-2.77c2.47,1.05,4.25,2.04,5.34,2.98l-.06,.09h3.74v-3.14h3.5v3.14h4.31v-3.14h3.59v3.14h4.01v3.29h-4.01v2.35h4.88v3.29h-4.58c1.25,2.13,2.83,3.83,4.76,5.1,.14,.1,.28,.19,.42,.27-1.01,.82-1.82,1.74-2.44,2.74-.06,.08-.1,.14-.12,.18-1.15-.84-2.2-1.87-3.17-3.08v4.7Zm-3.11-9.92h-4.7c-.28,.64-.69,1.46-1.24,2.44h7.18c-.62-1.15-1.04-1.96-1.24-2.44Zm-.18,7.18v-1.99h-4.94v1.99h4.94Zm-4.37-12.81v2.35h4.31v-2.35h-4.31Z"/>
    <path class="cls-2" d="M89.76,51.08h.6c.22-.02,.38-.07,.48-.15,.1-.08,.18-.24,.24-.48,.1-.58,.14-1.52,.12-2.8,.62,.58,1.49,1.09,2.59,1.51,.06,0,.1,.01,.12,.03-.04,1.53-.19,2.68-.45,3.47-.2,.64-.56,1.12-1.09,1.42-.4,.28-.99,.42-1.78,.42h-1.78c-.96-.02-1.69-.27-2.17-.75-.4-.38-.62-1.02-.66-1.93-.02-.26-.03-.57-.03-.94v-5.52h-1.39c-.2,2.89-.78,5.02-1.75,6.39-.95,1.31-2.38,2.31-4.31,3.01-.36-.92-.93-1.78-1.72-2.56-2.31,.88-3.77,1.44-4.37,1.66l-.9-3.2,.87-.24v-5.09h-1.51c-.24,3.2-.93,5.58-2.08,7.15-.68,.92-1.56,1.7-2.62,2.32-.46-.94-1.08-1.78-1.84-2.5-.08-.06-.15-.12-.21-.18,1.77-.92,2.87-2.43,3.32-4.52,.14-.64,.24-1.4,.3-2.26h-1.63v-7.99h11.46v7.99h-1.99v4.04c.6-.2,1.5-.52,2.68-.96l.57,2.62c1.27-.8,2.05-2.07,2.35-3.8,.08-.52,.15-1.15,.21-1.87h-1.33v-8.02h11.91v8.02h-2.8v5.16c0,.14,.04,.27,.12,.39,.14,.12,.29,.18,.45,.18Zm-11.28-17.79v2.86h-13.66v-2.86h2.83c-.14-.86-.36-1.68-.66-2.44l.33-.06h-1.96v-2.74h4.85v-2.05h3.32v2.05h4.7v2.74h-1.81l.42,.12c-.16,.4-.37,.93-.63,1.6-.14,.36-.24,.62-.3,.78h2.56Zm-9.23,6.72v2.59h4.97v-2.59h-4.97Zm4.4-9.23h-3.68c.32,.88,.53,1.7,.63,2.44l-.3,.06h2.98l-.45-.09c.48-1.41,.75-2.21,.81-2.41Zm19.6,2.5v2.86h-14.14v-2.86h2.56c-.14-.72-.37-1.55-.69-2.47l.12-.03h-1.69v-2.74h4.64v-2.05h3.47v2.05h5.34v2.74h-1.54l-1.21,2.5h3.14Zm-9.89,6.72v2.62h5.1v-2.62h-5.1Zm4.49-9.23h-3.8c.32,.8,.55,1.61,.69,2.41l-.36,.09h3.17l-.54-.12c.44-1.15,.72-1.94,.84-2.38Z"/>
    <path class="cls-2" d="M124.1,39.56v3.17h-3.44v6.75h-3.65v-1.42h-5.52v2.65c0,1.53-.32,2.54-.96,3.04-.24,.2-.52,.36-.84,.48-1.05,.38-3.07,.57-6.06,.57-.22-1.01-.68-2.2-1.39-3.59,2.05,.1,3.63,.12,4.73,.06,.5-.16,.77-.37,.81-.63v-2.59h-8.32v-3.1h8.32v-2.23h-12.09v-3.17h12.09v-2.02h-7.57v-2.38c-.34,.52-.77,1.11-1.3,1.75-1.19-.9-2.26-1.6-3.23-2.08,1.65-1.67,2.94-3.95,3.89-6.84,.08-.28,.16-.54,.24-.78l3.05,.72c6.69-.5,11.81-1.15,15.35-1.93l2.86,2.89c-.24,.04-.89,.16-1.96,.36,2.05,2.05,3.51,3.85,4.37,5.4l-2.83,1.54v3.38h3.44Zm-16.94-8.44l2.62-.69c-2.85,.28-5.3,.47-7.33,.57-.6,1.35-1.2,2.49-1.78,3.44h7.63c-.24-1.1-.62-2.21-1.15-3.32Zm8.77-.54l2.29-1.21c-2.31,.38-4.89,.71-7.75,1,.66,1.31,1.1,2.47,1.3,3.5l-2.14,.57h9.44c-1.11-1.53-2.15-2.81-3.14-3.86Zm-4.43,6.96v2.02h5.52v-2.02h-5.52Zm5.52,7.42v-2.23h-5.52v2.23h5.52Z"/>
  </g>
  <line class="cls-1" x1="0" y1="71.13" x2="124.1" y2="71.13"/>
</svg>